<?xml version="1.0" encoding="utf-8" standalone="no"?>
<!DOCTYPE svg PUBLIC "-//W3C//DTD SVG 1.1//EN"
  "http://www.w3.org/Graphics/SVG/1.1/DTD/svg11.dtd">
<svg xmlns:xlink="http://www.w3.org/1999/xlink" width="572.4pt" height="589.518125pt" viewBox="0 0 572.4 589.518125" xmlns="http://www.w3.org/2000/svg" version="1.1">
 <metadata>
  <rdf:RDF xmlns:dc="http://purl.org/dc/elements/1.1/" xmlns:cc="http://creativecommons.org/ns#" xmlns:rdf="http://www.w3.org/1999/02/22-rdf-syntax-ns#">
   <cc:Work>
    <dc:type rdf:resource="http://purl.org/dc/dcmitype/StillImage"/>
    <dc:date>2026-01-20T10:13:36.977414</dc:date>
    <dc:format>image/svg+xml</dc:format>
    <dc:creator>
     <cc:Agent>
      <dc:title>Matplotlib v3.10.8, https://matplotlib.org/</dc:title>
     </cc:Agent>
    </dc:creator>
   </cc:Work>
  </rdf:RDF>
 </metadata>
 <defs>
  <style type="text/css">*{stroke-linejoin: round; stroke-linecap: butt}</style>
 </defs>
 <g id="figure_1">
  <g id="patch_1">
   <path d="M 0 589.518125 
L 572.4 589.518125 
L 572.4 0 
L 0 0 
z
" style="fill: #ffffff"/>
  </g>
  <g id="axes_1">
   <g id="patch_2">
    <path d="M 224.82 80.118125 
L 347.58 80.118125 
L 347.58 52.218125 
L 224.82 52.218125 
z
" clip-path="url(#p6542d97830)" style="fill: #e8e8e8; stroke: #555555; stroke-width: 0.8; stroke-linejoin: miter"/>
   </g>
   <g id="patch_3">
    <path d="M 90.9 147.078125 
L 191.34 147.078125 
L 191.34 119.178125 
L 90.9 119.178125 
z
" clip-path="url(#p6542d97830)" style="fill: #d8d8d8; stroke: #555555; stroke-width: 0.8; stroke-linejoin: miter"/>
   </g>
   <g id="patch_4">
    <path d="M 314.1 147.078125 
L 414.54 147.078125 
L 414.54 119.178125 
L 314.1 119.178125 
z
" clip-path="url(#p6542d97830)" style="fill: #d8d8d8; stroke: #555555; stroke-width: 0.8; stroke-linejoin: miter"/>
   </g>
   <g id="patch_5">
    <path d="M 90.9 214.038125 
L 191.34 214.038125 
L 191.34 186.138125 
L 90.9 186.138125 
z
" clip-path="url(#p6542d97830)" style="fill: #c8c8c8; stroke: #555555; stroke-width: 0.8; stroke-linejoin: miter"/>
   </g>
   <g id="patch_6">
    <path d="M 314.1 214.038125 
L 414.54 214.038125 
L 414.54 186.138125 
L 314.1 186.138125 
z
" clip-path="url(#p6542d97830)" style="fill: #c8c8c8; stroke: #555555; stroke-width: 0.8; stroke-linejoin: miter"/>
   </g>
   <g id="patch_7">
    <path d="M 35.1 280.998125 
L 135.54 280.998125 
L 135.54 253.098125 
L 35.1 253.098125 
z
" clip-path="url(#p6542d97830)" style="fill: #b8d4e8; stroke: #555555; stroke-width: 0.8; stroke-linejoin: miter"/>
   </g>
   <g id="patch_8">
    <path d="M 202.5 280.998125 
L 302.94 280.998125 
L 302.94 253.098125 
L 202.5 253.098125 
z
" clip-path="url(#p6542d97830)" style="fill: #b8d4e8; stroke: #555555; stroke-width: 0.8; stroke-linejoin: miter"/>
   </g>
   <g id="patch_9">
    <path d="M 369.9 280.998125 
L 470.34 280.998125 
L 470.34 253.098125 
L 369.9 253.098125 
z
" clip-path="url(#p6542d97830)" style="fill: #b8d4e8; stroke: #555555; stroke-width: 0.8; stroke-linejoin: miter"/>
   </g>
   <g id="patch_10">
    <path d="M 202.5 347.958125 
L 325.26 347.958125 
L 325.26 320.058125 
L 202.5 320.058125 
z
" clip-path="url(#p6542d97830)" style="fill: #e8d8b8; stroke: #555555; stroke-width: 0.8; stroke-linejoin: miter"/>
   </g>
   <g id="patch_11">
    <path d="M 90.9 414.918125 
L 191.34 414.918125 
L 191.34 387.018125 
L 90.9 387.018125 
z
" clip-path="url(#p6542d97830)" style="fill: #e8d8b8; stroke: #555555; stroke-width: 0.8; stroke-linejoin: miter"/>
   </g>
   <g id="patch_12">
    <path d="M 314.1 414.918125 
L 414.54 414.918125 
L 414.54 387.018125 
L 314.1 387.018125 
z
" clip-path="url(#p6542d97830)" style="fill: #e8d8b8; stroke: #555555; stroke-width: 0.8; stroke-linejoin: miter"/>
   </g>
   <g id="patch_13">
    <path d="M 35.1 481.878125 
L 135.54 481.878125 
L 135.54 453.978125 
L 35.1 453.978125 
z
" clip-path="url(#p6542d97830)" style="fill: #d8e8d8; stroke: #555555; stroke-width: 0.8; stroke-linejoin: miter"/>
   </g>
   <g id="patch_14">
    <path d="M 202.5 481.878125 
L 302.94 481.878125 
L 302.94 453.978125 
L 202.5 453.978125 
z
" clip-path="url(#p6542d97830)" style="fill: #d8e8d8; stroke: #555555; stroke-width: 0.8; stroke-linejoin: miter"/>
   </g>
   <g id="patch_15">
    <path d="M 369.9 481.878125 
L 470.34 481.878125 
L 470.34 453.978125 
L 369.9 453.978125 
z
" clip-path="url(#p6542d97830)" style="fill: #d8e8d8; stroke: #555555; stroke-width: 0.8; stroke-linejoin: miter"/>
   </g>
   <g id="patch_16">
    <path d="M 174.6 548.838125 
L 342 548.838125 
L 342 520.938125 
L 174.6 520.938125 
z
" clip-path="url(#p6542d97830)" style="fill: #e8d8d8; stroke: #555555; stroke-width: 0.8; stroke-linejoin: miter"/>
   </g>
   <g id="patch_17">
    <path d="M 284.265187 80.639036 
Q 213.660204 99.64807 143.918894 118.424577 
" clip-path="url(#p6542d97830)" style="fill: none; stroke: #555555; stroke-width: 0.8; stroke-linecap: round"/>
    <path d="M 147.424822 119.137647 
L 143.918894 118.424577 
L 146.592907 116.047676 
z
" clip-path="url(#p6542d97830)" style="fill: #555555; stroke: #555555; stroke-width: 0.8; stroke-linecap: round"/>
   </g>
   <g id="patch_18">
    <path d="M 287.990409 81.013329 
Q 325.261882 99.649066 361.733355 117.884802 
" clip-path="url(#p6542d97830)" style="fill: none; stroke: #555555; stroke-width: 0.8; stroke-linecap: round"/>
    <path d="M 359.586729 115.022635 
L 361.733355 117.884802 
L 358.155646 117.884802 
z
" clip-path="url(#p6542d97830)" style="fill: #555555; stroke: #555555; stroke-width: 0.8; stroke-linecap: round"/>
   </g>
   <g id="patch_19">
    <path d="M 141.12 149.075945 
Q 141.12 166.604926 141.12 183.239481 
" clip-path="url(#p6542d97830)" style="fill: none; stroke: #555555; stroke-width: 0.8; stroke-linecap: round"/>
    <path d="M 142.72 180.039481 
L 141.12 183.239481 
L 139.52 180.039481 
z
" clip-path="url(#p6542d97830)" style="fill: #555555; stroke: #555555; stroke-width: 0.8; stroke-linecap: round"/>
   </g>
   <g id="patch_20">
    <path d="M 364.32 149.075945 
Q 364.32 166.604926 364.32 183.239481 
" clip-path="url(#p6542d97830)" style="fill: none; stroke: #555555; stroke-width: 0.8; stroke-linecap: round"/>
    <path d="M 365.92 180.039481 
L 364.32 183.239481 
L 362.72 180.039481 
z
" clip-path="url(#p6542d97830)" style="fill: #555555; stroke: #555555; stroke-width: 0.8; stroke-linecap: round"/>
   </g>
   <g id="patch_21">
    <path d="M 139.481829 215.184845 
Q 113.219094 233.568759 87.689102 251.439753 
" clip-path="url(#p6542d97830)" style="fill: none; stroke: #555555; stroke-width: 0.8; stroke-linecap: round"/>
    <path d="M 91.228184 250.915445 
L 87.689102 251.439753 
L 89.393105 248.293903 
z
" clip-path="url(#p6542d97830)" style="fill: #555555; stroke: #555555; stroke-width: 0.8; stroke-linecap: round"/>
   </g>
   <g id="patch_22">
    <path d="M 143.010198 214.699694 
Q 196.922615 233.56904 249.99082 252.142912 
" clip-path="url(#p6542d97830)" style="fill: none; stroke: #555555; stroke-width: 0.8; stroke-linecap: round"/>
    <path d="M 247.499034 249.575617 
L 249.99082 252.142912 
L 246.441912 252.595964 
z
" clip-path="url(#p6542d97830)" style="fill: #555555; stroke: #555555; stroke-width: 0.8; stroke-linecap: round"/>
   </g>
   <g id="patch_23">
    <path d="M 365.958171 215.184845 
Q 392.220906 233.568759 417.750898 251.439753 
" clip-path="url(#p6542d97830)" style="fill: none; stroke: #555555; stroke-width: 0.8; stroke-linecap: round"/>
    <path d="M 416.046895 248.293903 
L 417.750898 251.439753 
L 414.211816 250.915445 
z
" clip-path="url(#p6542d97830)" style="fill: #555555; stroke: #555555; stroke-width: 0.8; stroke-linecap: round"/>
   </g>
   <g id="patch_24">
    <path d="M 87.254813 281.519036 
Q 157.859796 300.52807 227.601106 319.304577 
" clip-path="url(#p6542d97830)" style="fill: none; stroke: #555555; stroke-width: 0.8; stroke-linecap: round"/>
    <path d="M 224.927093 316.927676 
L 227.601106 319.304577 
L 224.095178 320.017647 
z
" clip-path="url(#p6542d97830)" style="fill: #555555; stroke: #555555; stroke-width: 0.8; stroke-linecap: round"/>
   </g>
   <g id="patch_25">
    <path d="M 253.269009 282.919656 
Q 258.299256 300.525521 263.083785 317.271372 
" clip-path="url(#p6542d97830)" style="fill: none; stroke: #555555; stroke-width: 0.8; stroke-linecap: round"/>
    <path d="M 263.743116 313.754942 
L 263.083785 317.271372 
L 260.666239 314.63405 
z
" clip-path="url(#p6542d97830)" style="fill: #555555; stroke: #555555; stroke-width: 0.8; stroke-linecap: round"/>
   </g>
   <g id="patch_26">
    <path d="M 418.213114 281.604861 
Q 358.739942 300.528143 300.119093 319.180232 
" clip-path="url(#p6542d97830)" style="fill: none; stroke: #555555; stroke-width: 0.8; stroke-linecap: round"/>
    <path d="M 303.653582 319.734661 
L 300.119093 319.180232 
L 302.68333 316.685299 
z
" clip-path="url(#p6542d97830)" style="fill: #555555; stroke: #555555; stroke-width: 0.8; stroke-linecap: round"/>
   </g>
   <g id="patch_27">
    <path d="M 228.566338 348.760352 
Q 185.75985 367.48819 143.772799 385.857525 
" clip-path="url(#p6542d97830)" style="fill: none; stroke: #555555; stroke-width: 0.8; stroke-linecap: round"/>
    <path d="M 147.345812 386.040757 
L 143.772799 385.857525 
L 146.063192 383.109053 
z
" clip-path="url(#p6542d97830)" style="fill: #555555; stroke: #555555; stroke-width: 0.8; stroke-linecap: round"/>
   </g>
   <g id="patch_28">
    <path d="M 299.088765 348.966571 
Q 330.84241 367.489531 361.823467 385.561814 
" clip-path="url(#p6542d97830)" style="fill: none; stroke: #555555; stroke-width: 0.8; stroke-linecap: round"/>
    <path d="M 359.865568 382.567381 
L 361.823467 385.561814 
L 358.253181 385.331473 
z
" clip-path="url(#p6542d97830)" style="fill: #555555; stroke: #555555; stroke-width: 0.8; stroke-linecap: round"/>
   </g>
   <g id="patch_29">
    <path d="M 139.481829 416.064845 
Q 113.219094 434.448759 87.689102 452.319753 
" clip-path="url(#p6542d97830)" style="fill: none; stroke: #555555; stroke-width: 0.8; stroke-linecap: round"/>
    <path d="M 91.228184 451.795445 
L 87.689102 452.319753 
L 89.393105 449.173903 
z
" clip-path="url(#p6542d97830)" style="fill: #555555; stroke: #555555; stroke-width: 0.8; stroke-linecap: round"/>
   </g>
   <g id="patch_30">
    <path d="M 143.010198 415.579694 
Q 196.922615 434.44904 249.99082 453.022912 
" clip-path="url(#p6542d97830)" style="fill: none; stroke: #555555; stroke-width: 0.8; stroke-linecap: round"/>
    <path d="M 247.499034 450.455617 
L 249.99082 453.022912 
L 246.441912 453.475964 
z
" clip-path="url(#p6542d97830)" style="fill: #555555; stroke: #555555; stroke-width: 0.8; stroke-linecap: round"/>
   </g>
   <g id="patch_31">
    <path d="M 365.958171 416.064845 
Q 392.220906 434.448759 417.750898 452.319753 
" clip-path="url(#p6542d97830)" style="fill: none; stroke: #555555; stroke-width: 0.8; stroke-linecap: round"/>
    <path d="M 416.046895 449.173903 
L 417.750898 452.319753 
L 414.211816 451.795445 
z
" clip-path="url(#p6542d97830)" style="fill: #555555; stroke: #555555; stroke-width: 0.8; stroke-linecap: round"/>
   </g>
   <g id="patch_32">
    <path d="M 87.236763 482.437181 
Q 152.277603 501.407426 216.459794 520.127232 
" clip-path="url(#p6542d97830)" style="fill: none; stroke: #555555; stroke-width: 0.8; stroke-linecap: round"/>
    <path d="M 213.835794 517.695232 
L 216.459794 520.127232 
L 212.939794 520.767232 
z
" clip-path="url(#p6542d97830)" style="fill: #555555; stroke: #555555; stroke-width: 0.8; stroke-linecap: round"/>
   </g>
   <g id="patch_33">
    <path d="M 253.002678 483.856873 
Q 255.510047 501.408454 257.890925 518.074598 
" clip-path="url(#p6542d97830)" style="fill: none; stroke: #555555; stroke-width: 0.8; stroke-linecap: round"/>
    <path d="M 259.022296 514.680485 
L 257.890925 518.074598 
L 255.854457 515.133034 
z
" clip-path="url(#p6542d97830)" style="fill: #555555; stroke: #555555; stroke-width: 0.8; stroke-linecap: round"/>
   </g>
   <g id="patch_34">
    <path d="M 418.213114 482.484861 
Q 358.739942 501.408143 300.119093 520.060232 
" clip-path="url(#p6542d97830)" style="fill: none; stroke: #555555; stroke-width: 0.8; stroke-linecap: round"/>
    <path d="M 303.653582 520.614661 
L 300.119093 520.060232 
L 302.68333 517.565299 
z
" clip-path="url(#p6542d97830)" style="fill: #555555; stroke: #555555; stroke-width: 0.8; stroke-linecap: round"/>
   </g>
   <g id="patch_35">
    <path d="M 36.956016 467.174403 
Q 138.533412 425.631503 200.847728 336.383163 
" clip-path="url(#p6542d97830)" style="fill: none; stroke-dasharray: 2.96,1.28; stroke-dashoffset: 0; stroke: #555555; stroke-width: 0.8; stroke-linecap: round"/>
    <path d="M 197.703926 338.090941 
L 200.847728 336.383163 
L 200.327669 339.922872 
z
" clip-path="url(#p6542d97830)" style="fill: #555555; stroke-dasharray: 2.96,1.28; stroke-dashoffset: 0; stroke: #555555; stroke-width: 0.8; stroke-linecap: round"/>
   </g>
   <g id="text_1">
    <!-- Raw CSV -->
    <g style="fill: #333333" transform="translate(268.448125 63.911625) scale(0.08 -0.08)">
     <defs>
      <path id="DejaVuSans-52" d="M 2841 2188 
Q 3044 2119 3236 1894 
Q 3428 1669 3622 1275 
L 4263 0 
L 3584 0 
L 2988 1197 
Q 2756 1666 2539 1819 
Q 2322 1972 1947 1972 
L 1259 1972 
L 1259 0 
L 628 0 
L 628 4666 
L 2053 4666 
Q 2853 4666 3247 4331 
Q 3641 3997 3641 3322 
Q 3641 2881 3436 2590 
Q 3231 2300 2841 2188 
z
M 1259 4147 
L 1259 2491 
L 2053 2491 
Q 2509 2491 2742 2702 
Q 2975 2913 2975 3322 
Q 2975 3731 2742 3939 
Q 2509 4147 2053 4147 
L 1259 4147 
z
" transform="scale(0.015625)"/>
      <path id="DejaVuSans-61" d="M 2194 1759 
Q 1497 1759 1228 1600 
Q 959 1441 959 1056 
Q 959 750 1161 570 
Q 1363 391 1709 391 
Q 2188 391 2477 730 
Q 2766 1069 2766 1631 
L 2766 1759 
L 2194 1759 
z
M 3341 1997 
L 3341 0 
L 2766 0 
L 2766 531 
Q 2569 213 2275 61 
Q 1981 -91 1556 -91 
Q 1019 -91 701 211 
Q 384 513 384 1019 
Q 384 1609 779 1909 
Q 1175 2209 1959 2209 
L 2766 2209 
L 2766 2266 
Q 2766 2663 2505 2880 
Q 2244 3097 1772 3097 
Q 1472 3097 1187 3025 
Q 903 2953 641 2809 
L 641 3341 
Q 956 3463 1253 3523 
Q 1550 3584 1831 3584 
Q 2591 3584 2966 3190 
Q 3341 2797 3341 1997 
z
" transform="scale(0.015625)"/>
      <path id="DejaVuSans-77" d="M 269 3500 
L 844 3500 
L 1563 769 
L 2278 3500 
L 2956 3500 
L 3675 769 
L 4391 3500 
L 4966 3500 
L 4050 0 
L 3372 0 
L 2619 2869 
L 1863 0 
L 1184 0 
L 269 3500 
z
" transform="scale(0.015625)"/>
      <path id="DejaVuSans-20" transform="scale(0.015625)"/>
      <path id="DejaVuSans-43" d="M 4122 4306 
L 4122 3641 
Q 3803 3938 3442 4084 
Q 3081 4231 2675 4231 
Q 1875 4231 1450 3742 
Q 1025 3253 1025 2328 
Q 1025 1406 1450 917 
Q 1875 428 2675 428 
Q 3081 428 3442 575 
Q 3803 722 4122 1019 
L 4122 359 
Q 3791 134 3420 21 
Q 3050 -91 2638 -91 
Q 1578 -91 968 557 
Q 359 1206 359 2328 
Q 359 3453 968 4101 
Q 1578 4750 2638 4750 
Q 3056 4750 3426 4639 
Q 3797 4528 4122 4306 
z
" transform="scale(0.015625)"/>
      <path id="DejaVuSans-53" d="M 3425 4513 
L 3425 3897 
Q 3066 4069 2747 4153 
Q 2428 4238 2131 4238 
Q 1616 4238 1336 4038 
Q 1056 3838 1056 3469 
Q 1056 3159 1242 3001 
Q 1428 2844 1947 2747 
L 2328 2669 
Q 3034 2534 3370 2195 
Q 3706 1856 3706 1288 
Q 3706 609 3251 259 
Q 2797 -91 1919 -91 
Q 1588 -91 1214 -16 
Q 841 59 441 206 
L 441 856 
Q 825 641 1194 531 
Q 1563 422 1919 422 
Q 2459 422 2753 634 
Q 3047 847 3047 1241 
Q 3047 1584 2836 1778 
Q 2625 1972 2144 2069 
L 1759 2144 
Q 1053 2284 737 2584 
Q 422 2884 422 3419 
Q 422 4038 858 4394 
Q 1294 4750 2059 4750 
Q 2388 4750 2728 4690 
Q 3069 4631 3425 4513 
z
" transform="scale(0.015625)"/>
      <path id="DejaVuSans-56" d="M 1831 0 
L 50 4666 
L 709 4666 
L 2188 738 
L 3669 4666 
L 4325 4666 
L 2547 0 
L 1831 0 
z
" transform="scale(0.015625)"/>
     </defs>
     <use xlink:href="#DejaVuSans-52"/>
     <use xlink:href="#DejaVuSans-61" transform="translate(67.232422 0)"/>
     <use xlink:href="#DejaVuSans-77" transform="translate(128.511719 0)"/>
     <use xlink:href="#DejaVuSans-20" transform="translate(210.298828 0)"/>
     <use xlink:href="#DejaVuSans-43" transform="translate(242.085938 0)"/>
     <use xlink:href="#DejaVuSans-53" transform="translate(311.910156 0)"/>
     <use xlink:href="#DejaVuSans-56" transform="translate(375.386719 0)"/>
    </g>
   </g>
   <g id="text_2">
    <!-- all_albums_full.csv -->
    <g style="fill: #333333; opacity: 0.7" transform="translate(258.166406 80.771187) scale(0.06 -0.06)">
     <defs>
      <path id="DejaVuSans-6c" d="M 603 4863 
L 1178 4863 
L 1178 0 
L 603 0 
L 603 4863 
z
" transform="scale(0.015625)"/>
      <path id="DejaVuSans-5f" d="M 3263 -1063 
L 3263 -1509 
L -63 -1509 
L -63 -1063 
L 3263 -1063 
z
" transform="scale(0.015625)"/>
      <path id="DejaVuSans-62" d="M 3116 1747 
Q 3116 2381 2855 2742 
Q 2594 3103 2138 3103 
Q 1681 3103 1420 2742 
Q 1159 2381 1159 1747 
Q 1159 1113 1420 752 
Q 1681 391 2138 391 
Q 2594 391 2855 752 
Q 3116 1113 3116 1747 
z
M 1159 2969 
Q 1341 3281 1617 3432 
Q 1894 3584 2278 3584 
Q 2916 3584 3314 3078 
Q 3713 2572 3713 1747 
Q 3713 922 3314 415 
Q 2916 -91 2278 -91 
Q 1894 -91 1617 61 
Q 1341 213 1159 525 
L 1159 0 
L 581 0 
L 581 4863 
L 1159 4863 
L 1159 2969 
z
" transform="scale(0.015625)"/>
      <path id="DejaVuSans-75" d="M 544 1381 
L 544 3500 
L 1119 3500 
L 1119 1403 
Q 1119 906 1312 657 
Q 1506 409 1894 409 
Q 2359 409 2629 706 
Q 2900 1003 2900 1516 
L 2900 3500 
L 3475 3500 
L 3475 0 
L 2900 0 
L 2900 538 
Q 2691 219 2414 64 
Q 2138 -91 1772 -91 
Q 1169 -91 856 284 
Q 544 659 544 1381 
z
M 1991 3584 
L 1991 3584 
z
" transform="scale(0.015625)"/>
      <path id="DejaVuSans-6d" d="M 3328 2828 
Q 3544 3216 3844 3400 
Q 4144 3584 4550 3584 
Q 5097 3584 5394 3201 
Q 5691 2819 5691 2113 
L 5691 0 
L 5113 0 
L 5113 2094 
Q 5113 2597 4934 2840 
Q 4756 3084 4391 3084 
Q 3944 3084 3684 2787 
Q 3425 2491 3425 1978 
L 3425 0 
L 2847 0 
L 2847 2094 
Q 2847 2600 2669 2842 
Q 2491 3084 2119 3084 
Q 1678 3084 1418 2786 
Q 1159 2488 1159 1978 
L 1159 0 
L 581 0 
L 581 3500 
L 1159 3500 
L 1159 2956 
Q 1356 3278 1631 3431 
Q 1906 3584 2284 3584 
Q 2666 3584 2933 3390 
Q 3200 3197 3328 2828 
z
" transform="scale(0.015625)"/>
      <path id="DejaVuSans-73" d="M 2834 3397 
L 2834 2853 
Q 2591 2978 2328 3040 
Q 2066 3103 1784 3103 
Q 1356 3103 1142 2972 
Q 928 2841 928 2578 
Q 928 2378 1081 2264 
Q 1234 2150 1697 2047 
L 1894 2003 
Q 2506 1872 2764 1633 
Q 3022 1394 3022 966 
Q 3022 478 2636 193 
Q 2250 -91 1575 -91 
Q 1294 -91 989 -36 
Q 684 19 347 128 
L 347 722 
Q 666 556 975 473 
Q 1284 391 1588 391 
Q 1994 391 2212 530 
Q 2431 669 2431 922 
Q 2431 1156 2273 1281 
Q 2116 1406 1581 1522 
L 1381 1569 
Q 847 1681 609 1914 
Q 372 2147 372 2553 
Q 372 3047 722 3315 
Q 1072 3584 1716 3584 
Q 2034 3584 2315 3537 
Q 2597 3491 2834 3397 
z
" transform="scale(0.015625)"/>
      <path id="DejaVuSans-66" d="M 2375 4863 
L 2375 4384 
L 1825 4384 
Q 1516 4384 1395 4259 
Q 1275 4134 1275 3809 
L 1275 3500 
L 2222 3500 
L 2222 3053 
L 1275 3053 
L 1275 0 
L 697 0 
L 697 3053 
L 147 3053 
L 147 3500 
L 697 3500 
L 697 3744 
Q 697 4328 969 4595 
Q 1241 4863 1831 4863 
L 2375 4863 
z
" transform="scale(0.015625)"/>
      <path id="DejaVuSans-2e" d="M 684 794 
L 1344 794 
L 1344 0 
L 684 0 
L 684 794 
z
" transform="scale(0.015625)"/>
      <path id="DejaVuSans-63" d="M 3122 3366 
L 3122 2828 
Q 2878 2963 2633 3030 
Q 2388 3097 2138 3097 
Q 1578 3097 1268 2742 
Q 959 2388 959 1747 
Q 959 1106 1268 751 
Q 1578 397 2138 397 
Q 2388 397 2633 464 
Q 2878 531 3122 666 
L 3122 134 
Q 2881 22 2623 -34 
Q 2366 -91 2075 -91 
Q 1284 -91 818 406 
Q 353 903 353 1747 
Q 353 2603 823 3093 
Q 1294 3584 2113 3584 
Q 2378 3584 2631 3529 
Q 2884 3475 3122 3366 
z
" transform="scale(0.015625)"/>
      <path id="DejaVuSans-76" d="M 191 3500 
L 800 3500 
L 1894 563 
L 2988 3500 
L 3597 3500 
L 2284 0 
L 1503 0 
L 191 3500 
z
" transform="scale(0.015625)"/>
     </defs>
     <use xlink:href="#DejaVuSans-61"/>
     <use xlink:href="#DejaVuSans-6c" transform="translate(61.279297 0)"/>
     <use xlink:href="#DejaVuSans-6c" transform="translate(89.0625 0)"/>
     <use xlink:href="#DejaVuSans-5f" transform="translate(116.845703 0)"/>
     <use xlink:href="#DejaVuSans-61" transform="translate(166.845703 0)"/>
     <use xlink:href="#DejaVuSans-6c" transform="translate(228.125 0)"/>
     <use xlink:href="#DejaVuSans-62" transform="translate(255.908203 0)"/>
     <use xlink:href="#DejaVuSans-75" transform="translate(319.384766 0)"/>
     <use xlink:href="#DejaVuSans-6d" transform="translate(382.763672 0)"/>
     <use xlink:href="#DejaVuSans-73" transform="translate(480.175781 0)"/>
     <use xlink:href="#DejaVuSans-5f" transform="translate(532.275391 0)"/>
     <use xlink:href="#DejaVuSans-66" transform="translate(582.275391 0)"/>
     <use xlink:href="#DejaVuSans-75" transform="translate(617.480469 0)"/>
     <use xlink:href="#DejaVuSans-6c" transform="translate(680.859375 0)"/>
     <use xlink:href="#DejaVuSans-6c" transform="translate(708.642578 0)"/>
     <use xlink:href="#DejaVuSans-2e" transform="translate(736.425781 0)"/>
     <use xlink:href="#DejaVuSans-63" transform="translate(768.212891 0)"/>
     <use xlink:href="#DejaVuSans-73" transform="translate(823.193359 0)"/>
     <use xlink:href="#DejaVuSans-76" transform="translate(875.292969 0)"/>
    </g>
   </g>
   <g id="text_3">
    <!-- Schema Validation -->
    <g style="fill: #333333" transform="translate(104.01375 130.871625) scale(0.08 -0.08)">
     <defs>
      <path id="DejaVuSans-68" d="M 3513 2113 
L 3513 0 
L 2938 0 
L 2938 2094 
Q 2938 2591 2744 2837 
Q 2550 3084 2163 3084 
Q 1697 3084 1428 2787 
Q 1159 2491 1159 1978 
L 1159 0 
L 581 0 
L 581 4863 
L 1159 4863 
L 1159 2956 
Q 1366 3272 1645 3428 
Q 1925 3584 2291 3584 
Q 2894 3584 3203 3211 
Q 3513 2838 3513 2113 
z
" transform="scale(0.015625)"/>
      <path id="DejaVuSans-65" d="M 3597 1894 
L 3597 1613 
L 953 1613 
Q 991 1019 1311 708 
Q 1631 397 2203 397 
Q 2534 397 2845 478 
Q 3156 559 3463 722 
L 3463 178 
Q 3153 47 2828 -22 
Q 2503 -91 2169 -91 
Q 1331 -91 842 396 
Q 353 884 353 1716 
Q 353 2575 817 3079 
Q 1281 3584 2069 3584 
Q 2775 3584 3186 3129 
Q 3597 2675 3597 1894 
z
M 3022 2063 
Q 3016 2534 2758 2815 
Q 2500 3097 2075 3097 
Q 1594 3097 1305 2825 
Q 1016 2553 972 2059 
L 3022 2063 
z
" transform="scale(0.015625)"/>
      <path id="DejaVuSans-69" d="M 603 3500 
L 1178 3500 
L 1178 0 
L 603 0 
L 603 3500 
z
M 603 4863 
L 1178 4863 
L 1178 4134 
L 603 4134 
L 603 4863 
z
" transform="scale(0.015625)"/>
      <path id="DejaVuSans-64" d="M 2906 2969 
L 2906 4863 
L 3481 4863 
L 3481 0 
L 2906 0 
L 2906 525 
Q 2725 213 2448 61 
Q 2172 -91 1784 -91 
Q 1150 -91 751 415 
Q 353 922 353 1747 
Q 353 2572 751 3078 
Q 1150 3584 1784 3584 
Q 2172 3584 2448 3432 
Q 2725 3281 2906 2969 
z
M 947 1747 
Q 947 1113 1208 752 
Q 1469 391 1925 391 
Q 2381 391 2643 752 
Q 2906 1113 2906 1747 
Q 2906 2381 2643 2742 
Q 2381 3103 1925 3103 
Q 1469 3103 1208 2742 
Q 947 2381 947 1747 
z
" transform="scale(0.015625)"/>
      <path id="DejaVuSans-74" d="M 1172 4494 
L 1172 3500 
L 2356 3500 
L 2356 3053 
L 1172 3053 
L 1172 1153 
Q 1172 725 1289 603 
Q 1406 481 1766 481 
L 2356 481 
L 2356 0 
L 1766 0 
Q 1100 0 847 248 
Q 594 497 594 1153 
L 594 3053 
L 172 3053 
L 172 3500 
L 594 3500 
L 594 4494 
L 1172 4494 
z
" transform="scale(0.015625)"/>
      <path id="DejaVuSans-6f" d="M 1959 3097 
Q 1497 3097 1228 2736 
Q 959 2375 959 1747 
Q 959 1119 1226 758 
Q 1494 397 1959 397 
Q 2419 397 2687 759 
Q 2956 1122 2956 1747 
Q 2956 2369 2687 2733 
Q 2419 3097 1959 3097 
z
M 1959 3584 
Q 2709 3584 3137 3096 
Q 3566 2609 3566 1747 
Q 3566 888 3137 398 
Q 2709 -91 1959 -91 
Q 1206 -91 779 398 
Q 353 888 353 1747 
Q 353 2609 779 3096 
Q 1206 3584 1959 3584 
z
" transform="scale(0.015625)"/>
      <path id="DejaVuSans-6e" d="M 3513 2113 
L 3513 0 
L 2938 0 
L 2938 2094 
Q 2938 2591 2744 2837 
Q 2550 3084 2163 3084 
Q 1697 3084 1428 2787 
Q 1159 2491 1159 1978 
L 1159 0 
L 581 0 
L 581 3500 
L 1159 3500 
L 1159 2956 
Q 1366 3272 1645 3428 
Q 1925 3584 2291 3584 
Q 2894 3584 3203 3211 
Q 3513 2838 3513 2113 
z
" transform="scale(0.015625)"/>
     </defs>
     <use xlink:href="#DejaVuSans-53"/>
     <use xlink:href="#DejaVuSans-63" transform="translate(63.476562 0)"/>
     <use xlink:href="#DejaVuSans-68" transform="translate(118.457031 0)"/>
     <use xlink:href="#DejaVuSans-65" transform="translate(181.835938 0)"/>
     <use xlink:href="#DejaVuSans-6d" transform="translate(243.359375 0)"/>
     <use xlink:href="#DejaVuSans-61" transform="translate(340.771484 0)"/>
     <use xlink:href="#DejaVuSans-20" transform="translate(402.050781 0)"/>
     <use xlink:href="#DejaVuSans-56" transform="translate(433.837891 0)"/>
     <use xlink:href="#DejaVuSans-61" transform="translate(494.496094 0)"/>
     <use xlink:href="#DejaVuSans-6c" transform="translate(555.775391 0)"/>
     <use xlink:href="#DejaVuSans-69" transform="translate(583.558594 0)"/>
     <use xlink:href="#DejaVuSans-64" transform="translate(611.341797 0)"/>
     <use xlink:href="#DejaVuSans-61" transform="translate(674.818359 0)"/>
     <use xlink:href="#DejaVuSans-74" transform="translate(736.097656 0)"/>
     <use xlink:href="#DejaVuSans-69" transform="translate(775.306641 0)"/>
     <use xlink:href="#DejaVuSans-6f" transform="translate(803.089844 0)"/>
     <use xlink:href="#DejaVuSans-6e" transform="translate(864.271484 0)"/>
    </g>
   </g>
   <g id="text_4">
    <!-- Pandera -->
    <g style="fill: #333333; opacity: 0.7" transform="translate(128.884219 147.731187) scale(0.06 -0.06)">
     <defs>
      <path id="DejaVuSans-50" d="M 1259 4147 
L 1259 2394 
L 2053 2394 
Q 2494 2394 2734 2622 
Q 2975 2850 2975 3272 
Q 2975 3691 2734 3919 
Q 2494 4147 2053 4147 
L 1259 4147 
z
M 628 4666 
L 2053 4666 
Q 2838 4666 3239 4311 
Q 3641 3956 3641 3272 
Q 3641 2581 3239 2228 
Q 2838 1875 2053 1875 
L 1259 1875 
L 1259 0 
L 628 0 
L 628 4666 
z
" transform="scale(0.015625)"/>
      <path id="DejaVuSans-72" d="M 2631 2963 
Q 2534 3019 2420 3045 
Q 2306 3072 2169 3072 
Q 1681 3072 1420 2755 
Q 1159 2438 1159 1844 
L 1159 0 
L 581 0 
L 581 3500 
L 1159 3500 
L 1159 2956 
Q 1341 3275 1631 3429 
Q 1922 3584 2338 3584 
Q 2397 3584 2469 3576 
Q 2541 3569 2628 3553 
L 2631 2963 
z
" transform="scale(0.015625)"/>
     </defs>
     <use xlink:href="#DejaVuSans-50"/>
     <use xlink:href="#DejaVuSans-61" transform="translate(55.802734 0)"/>
     <use xlink:href="#DejaVuSans-6e" transform="translate(117.082031 0)"/>
     <use xlink:href="#DejaVuSans-64" transform="translate(180.460938 0)"/>
     <use xlink:href="#DejaVuSans-65" transform="translate(243.9375 0)"/>
     <use xlink:href="#DejaVuSans-72" transform="translate(305.460938 0)"/>
     <use xlink:href="#DejaVuSans-61" transform="translate(346.574219 0)"/>
    </g>
   </g>
   <g id="text_5">
    <!-- Cleaning Rules -->
    <g style="fill: #333333" transform="translate(334.720625 130.871625) scale(0.08 -0.08)">
     <defs>
      <path id="DejaVuSans-67" d="M 2906 1791 
Q 2906 2416 2648 2759 
Q 2391 3103 1925 3103 
Q 1463 3103 1205 2759 
Q 947 2416 947 1791 
Q 947 1169 1205 825 
Q 1463 481 1925 481 
Q 2391 481 2648 825 
Q 2906 1169 2906 1791 
z
M 3481 434 
Q 3481 -459 3084 -895 
Q 2688 -1331 1869 -1331 
Q 1566 -1331 1297 -1286 
Q 1028 -1241 775 -1147 
L 775 -588 
Q 1028 -725 1275 -790 
Q 1522 -856 1778 -856 
Q 2344 -856 2625 -561 
Q 2906 -266 2906 331 
L 2906 616 
Q 2728 306 2450 153 
Q 2172 0 1784 0 
Q 1141 0 747 490 
Q 353 981 353 1791 
Q 353 2603 747 3093 
Q 1141 3584 1784 3584 
Q 2172 3584 2450 3431 
Q 2728 3278 2906 2969 
L 2906 3500 
L 3481 3500 
L 3481 434 
z
" transform="scale(0.015625)"/>
     </defs>
     <use xlink:href="#DejaVuSans-43"/>
     <use xlink:href="#DejaVuSans-6c" transform="translate(69.824219 0)"/>
     <use xlink:href="#DejaVuSans-65" transform="translate(97.607422 0)"/>
     <use xlink:href="#DejaVuSans-61" transform="translate(159.130859 0)"/>
     <use xlink:href="#DejaVuSans-6e" transform="translate(220.410156 0)"/>
     <use xlink:href="#DejaVuSans-69" transform="translate(283.789062 0)"/>
     <use xlink:href="#DejaVuSans-6e" transform="translate(311.572266 0)"/>
     <use xlink:href="#DejaVuSans-67" transform="translate(374.951172 0)"/>
     <use xlink:href="#DejaVuSans-20" transform="translate(438.427734 0)"/>
     <use xlink:href="#DejaVuSans-52" transform="translate(470.214844 0)"/>
     <use xlink:href="#DejaVuSans-75" transform="translate(535.197266 0)"/>
     <use xlink:href="#DejaVuSans-6c" transform="translate(598.576172 0)"/>
     <use xlink:href="#DejaVuSans-65" transform="translate(626.359375 0)"/>
     <use xlink:href="#DejaVuSans-73" transform="translate(687.882812 0)"/>
    </g>
   </g>
   <g id="text_6">
    <!-- exclusions -->
    <g style="fill: #333333; opacity: 0.7" transform="translate(348.723281 147.731187) scale(0.06 -0.06)">
     <defs>
      <path id="DejaVuSans-78" d="M 3513 3500 
L 2247 1797 
L 3578 0 
L 2900 0 
L 1881 1375 
L 863 0 
L 184 0 
L 1544 1831 
L 300 3500 
L 978 3500 
L 1906 2253 
L 2834 3500 
L 3513 3500 
z
" transform="scale(0.015625)"/>
     </defs>
     <use xlink:href="#DejaVuSans-65"/>
     <use xlink:href="#DejaVuSans-78" transform="translate(59.773438 0)"/>
     <use xlink:href="#DejaVuSans-63" transform="translate(117.203125 0)"/>
     <use xlink:href="#DejaVuSans-6c" transform="translate(172.183594 0)"/>
     <use xlink:href="#DejaVuSans-75" transform="translate(199.966797 0)"/>
     <use xlink:href="#DejaVuSans-73" transform="translate(263.345703 0)"/>
     <use xlink:href="#DejaVuSans-69" transform="translate(315.445312 0)"/>
     <use xlink:href="#DejaVuSans-6f" transform="translate(343.228516 0)"/>
     <use xlink:href="#DejaVuSans-6e" transform="translate(404.410156 0)"/>
     <use xlink:href="#DejaVuSans-73" transform="translate(467.789062 0)"/>
    </g>
   </g>
   <g id="text_7">
    <!-- Temporal Split -->
    <g style="fill: #333333" transform="translate(112.665 197.831625) scale(0.08 -0.08)">
     <defs>
      <path id="DejaVuSans-54" d="M -19 4666 
L 3928 4666 
L 3928 4134 
L 2272 4134 
L 2272 0 
L 1638 0 
L 1638 4134 
L -19 4134 
L -19 4666 
z
" transform="scale(0.015625)"/>
      <path id="DejaVuSans-70" d="M 1159 525 
L 1159 -1331 
L 581 -1331 
L 581 3500 
L 1159 3500 
L 1159 2969 
Q 1341 3281 1617 3432 
Q 1894 3584 2278 3584 
Q 2916 3584 3314 3078 
Q 3713 2572 3713 1747 
Q 3713 922 3314 415 
Q 2916 -91 2278 -91 
Q 1894 -91 1617 61 
Q 1341 213 1159 525 
z
M 3116 1747 
Q 3116 2381 2855 2742 
Q 2594 3103 2138 3103 
Q 1681 3103 1420 2742 
Q 1159 2381 1159 1747 
Q 1159 1113 1420 752 
Q 1681 391 2138 391 
Q 2594 391 2855 752 
Q 3116 1113 3116 1747 
z
" transform="scale(0.015625)"/>
     </defs>
     <use xlink:href="#DejaVuSans-54"/>
     <use xlink:href="#DejaVuSans-65" transform="translate(44.083984 0)"/>
     <use xlink:href="#DejaVuSans-6d" transform="translate(105.607422 0)"/>
     <use xlink:href="#DejaVuSans-70" transform="translate(203.019531 0)"/>
     <use xlink:href="#DejaVuSans-6f" transform="translate(266.496094 0)"/>
     <use xlink:href="#DejaVuSans-72" transform="translate(327.677734 0)"/>
     <use xlink:href="#DejaVuSans-61" transform="translate(368.791016 0)"/>
     <use xlink:href="#DejaVuSans-6c" transform="translate(430.070312 0)"/>
     <use xlink:href="#DejaVuSans-20" transform="translate(457.853516 0)"/>
     <use xlink:href="#DejaVuSans-53" transform="translate(489.640625 0)"/>
     <use xlink:href="#DejaVuSans-70" transform="translate(553.117188 0)"/>
     <use xlink:href="#DejaVuSans-6c" transform="translate(616.59375 0)"/>
     <use xlink:href="#DejaVuSans-69" transform="translate(644.376953 0)"/>
     <use xlink:href="#DejaVuSans-74" transform="translate(672.160156 0)"/>
    </g>
   </g>
   <g id="text_8">
    <!-- within-artist -->
    <g style="fill: #333333; opacity: 0.7" transform="translate(123.118594 214.691187) scale(0.06 -0.06)">
     <defs>
      <path id="DejaVuSans-2d" d="M 313 2009 
L 1997 2009 
L 1997 1497 
L 313 1497 
L 313 2009 
z
" transform="scale(0.015625)"/>
     </defs>
     <use xlink:href="#DejaVuSans-77"/>
     <use xlink:href="#DejaVuSans-69" transform="translate(81.787109 0)"/>
     <use xlink:href="#DejaVuSans-74" transform="translate(109.570312 0)"/>
     <use xlink:href="#DejaVuSans-68" transform="translate(148.779297 0)"/>
     <use xlink:href="#DejaVuSans-69" transform="translate(212.158203 0)"/>
     <use xlink:href="#DejaVuSans-6e" transform="translate(239.941406 0)"/>
     <use xlink:href="#DejaVuSans-2d" transform="translate(303.320312 0)"/>
     <use xlink:href="#DejaVuSans-61" transform="translate(339.404297 0)"/>
     <use xlink:href="#DejaVuSans-72" transform="translate(400.683594 0)"/>
     <use xlink:href="#DejaVuSans-74" transform="translate(441.796875 0)"/>
     <use xlink:href="#DejaVuSans-69" transform="translate(481.005859 0)"/>
     <use xlink:href="#DejaVuSans-73" transform="translate(508.789062 0)"/>
     <use xlink:href="#DejaVuSans-74" transform="translate(560.888672 0)"/>
    </g>
   </g>
   <g id="text_9">
    <!-- Artist-Disjoint Split -->
    <g style="fill: #333333" transform="translate(326.97625 197.831625) scale(0.08 -0.08)">
     <defs>
      <path id="DejaVuSans-41" d="M 2188 4044 
L 1331 1722 
L 3047 1722 
L 2188 4044 
z
M 1831 4666 
L 2547 4666 
L 4325 0 
L 3669 0 
L 3244 1197 
L 1141 1197 
L 716 0 
L 50 0 
L 1831 4666 
z
" transform="scale(0.015625)"/>
      <path id="DejaVuSans-44" d="M 1259 4147 
L 1259 519 
L 2022 519 
Q 2988 519 3436 956 
Q 3884 1394 3884 2338 
Q 3884 3275 3436 3711 
Q 2988 4147 2022 4147 
L 1259 4147 
z
M 628 4666 
L 1925 4666 
Q 3281 4666 3915 4102 
Q 4550 3538 4550 2338 
Q 4550 1131 3912 565 
Q 3275 0 1925 0 
L 628 0 
L 628 4666 
z
" transform="scale(0.015625)"/>
      <path id="DejaVuSans-6a" d="M 603 3500 
L 1178 3500 
L 1178 -63 
Q 1178 -731 923 -1031 
Q 669 -1331 103 -1331 
L -116 -1331 
L -116 -844 
L 38 -844 
Q 366 -844 484 -692 
Q 603 -541 603 -63 
L 603 3500 
z
M 603 4863 
L 1178 4863 
L 1178 4134 
L 603 4134 
L 603 4863 
z
" transform="scale(0.015625)"/>
     </defs>
     <use xlink:href="#DejaVuSans-41"/>
     <use xlink:href="#DejaVuSans-72" transform="translate(68.408203 0)"/>
     <use xlink:href="#DejaVuSans-74" transform="translate(109.521484 0)"/>
     <use xlink:href="#DejaVuSans-69" transform="translate(148.730469 0)"/>
     <use xlink:href="#DejaVuSans-73" transform="translate(176.513672 0)"/>
     <use xlink:href="#DejaVuSans-74" transform="translate(228.613281 0)"/>
     <use xlink:href="#DejaVuSans-2d" transform="translate(267.822266 0)"/>
     <use xlink:href="#DejaVuSans-44" transform="translate(303.90625 0)"/>
     <use xlink:href="#DejaVuSans-69" transform="translate(380.908203 0)"/>
     <use xlink:href="#DejaVuSans-73" transform="translate(408.691406 0)"/>
     <use xlink:href="#DejaVuSans-6a" transform="translate(460.791016 0)"/>
     <use xlink:href="#DejaVuSans-6f" transform="translate(488.574219 0)"/>
     <use xlink:href="#DejaVuSans-69" transform="translate(549.755859 0)"/>
     <use xlink:href="#DejaVuSans-6e" transform="translate(577.539062 0)"/>
     <use xlink:href="#DejaVuSans-74" transform="translate(640.917969 0)"/>
     <use xlink:href="#DejaVuSans-20" transform="translate(680.126953 0)"/>
     <use xlink:href="#DejaVuSans-53" transform="translate(711.914062 0)"/>
     <use xlink:href="#DejaVuSans-70" transform="translate(775.390625 0)"/>
     <use xlink:href="#DejaVuSans-6c" transform="translate(838.867188 0)"/>
     <use xlink:href="#DejaVuSans-69" transform="translate(866.650391 0)"/>
     <use xlink:href="#DejaVuSans-74" transform="translate(894.433594 0)"/>
    </g>
   </g>
   <g id="text_10">
    <!-- holdout artists -->
    <g style="fill: #333333; opacity: 0.7" transform="translate(342.595781 214.691187) scale(0.06 -0.06)">
     <use xlink:href="#DejaVuSans-68"/>
     <use xlink:href="#DejaVuSans-6f" transform="translate(63.378906 0)"/>
     <use xlink:href="#DejaVuSans-6c" transform="translate(124.560547 0)"/>
     <use xlink:href="#DejaVuSans-64" transform="translate(152.34375 0)"/>
     <use xlink:href="#DejaVuSans-6f" transform="translate(215.820312 0)"/>
     <use xlink:href="#DejaVuSans-75" transform="translate(277.001953 0)"/>
     <use xlink:href="#DejaVuSans-74" transform="translate(340.380859 0)"/>
     <use xlink:href="#DejaVuSans-20" transform="translate(379.589844 0)"/>
     <use xlink:href="#DejaVuSans-61" transform="translate(411.376953 0)"/>
     <use xlink:href="#DejaVuSans-72" transform="translate(472.65625 0)"/>
     <use xlink:href="#DejaVuSans-74" transform="translate(513.769531 0)"/>
     <use xlink:href="#DejaVuSans-69" transform="translate(552.978516 0)"/>
     <use xlink:href="#DejaVuSans-73" transform="translate(580.761719 0)"/>
     <use xlink:href="#DejaVuSans-74" transform="translate(632.861328 0)"/>
     <use xlink:href="#DejaVuSans-73" transform="translate(672.070312 0)"/>
    </g>
   </g>
   <g id="text_11">
    <!-- Temporal Features -->
    <g style="fill: #333333" transform="translate(48.53875 264.791625) scale(0.08 -0.08)">
     <defs>
      <path id="DejaVuSans-46" d="M 628 4666 
L 3309 4666 
L 3309 4134 
L 1259 4134 
L 1259 2759 
L 3109 2759 
L 3109 2228 
L 1259 2228 
L 1259 0 
L 628 0 
L 628 4666 
z
" transform="scale(0.015625)"/>
     </defs>
     <use xlink:href="#DejaVuSans-54"/>
     <use xlink:href="#DejaVuSans-65" transform="translate(44.083984 0)"/>
     <use xlink:href="#DejaVuSans-6d" transform="translate(105.607422 0)"/>
     <use xlink:href="#DejaVuSans-70" transform="translate(203.019531 0)"/>
     <use xlink:href="#DejaVuSans-6f" transform="translate(266.496094 0)"/>
     <use xlink:href="#DejaVuSans-72" transform="translate(327.677734 0)"/>
     <use xlink:href="#DejaVuSans-61" transform="translate(368.791016 0)"/>
     <use xlink:href="#DejaVuSans-6c" transform="translate(430.070312 0)"/>
     <use xlink:href="#DejaVuSans-20" transform="translate(457.853516 0)"/>
     <use xlink:href="#DejaVuSans-46" transform="translate(489.640625 0)"/>
     <use xlink:href="#DejaVuSans-65" transform="translate(541.660156 0)"/>
     <use xlink:href="#DejaVuSans-61" transform="translate(603.183594 0)"/>
     <use xlink:href="#DejaVuSans-74" transform="translate(664.462891 0)"/>
     <use xlink:href="#DejaVuSans-75" transform="translate(703.671875 0)"/>
     <use xlink:href="#DejaVuSans-72" transform="translate(767.050781 0)"/>
     <use xlink:href="#DejaVuSans-65" transform="translate(805.914062 0)"/>
     <use xlink:href="#DejaVuSans-73" transform="translate(867.4375 0)"/>
    </g>
   </g>
   <g id="text_12">
    <!-- 5 features -->
    <g style="fill: #333333; opacity: 0.7" transform="translate(70.065469 281.651187) scale(0.06 -0.06)">
     <defs>
      <path id="DejaVuSans-35" d="M 691 4666 
L 3169 4666 
L 3169 4134 
L 1269 4134 
L 1269 2991 
Q 1406 3038 1543 3061 
Q 1681 3084 1819 3084 
Q 2600 3084 3056 2656 
Q 3513 2228 3513 1497 
Q 3513 744 3044 326 
Q 2575 -91 1722 -91 
Q 1428 -91 1123 -41 
Q 819 9 494 109 
L 494 744 
Q 775 591 1075 516 
Q 1375 441 1709 441 
Q 2250 441 2565 725 
Q 2881 1009 2881 1497 
Q 2881 1984 2565 2268 
Q 2250 2553 1709 2553 
Q 1456 2553 1204 2497 
Q 953 2441 691 2322 
L 691 4666 
z
" transform="scale(0.015625)"/>
     </defs>
     <use xlink:href="#DejaVuSans-35"/>
     <use xlink:href="#DejaVuSans-20" transform="translate(63.623047 0)"/>
     <use xlink:href="#DejaVuSans-66" transform="translate(95.410156 0)"/>
     <use xlink:href="#DejaVuSans-65" transform="translate(130.615234 0)"/>
     <use xlink:href="#DejaVuSans-61" transform="translate(192.138672 0)"/>
     <use xlink:href="#DejaVuSans-74" transform="translate(253.417969 0)"/>
     <use xlink:href="#DejaVuSans-75" transform="translate(292.626953 0)"/>
     <use xlink:href="#DejaVuSans-72" transform="translate(356.005859 0)"/>
     <use xlink:href="#DejaVuSans-65" transform="translate(394.869141 0)"/>
     <use xlink:href="#DejaVuSans-73" transform="translate(456.392578 0)"/>
    </g>
   </g>
   <g id="text_13">
    <!-- Artist Features -->
    <g style="fill: #333333" transform="translate(223.54125 264.791625) scale(0.08 -0.08)">
     <use xlink:href="#DejaVuSans-41"/>
     <use xlink:href="#DejaVuSans-72" transform="translate(68.408203 0)"/>
     <use xlink:href="#DejaVuSans-74" transform="translate(109.521484 0)"/>
     <use xlink:href="#DejaVuSans-69" transform="translate(148.730469 0)"/>
     <use xlink:href="#DejaVuSans-73" transform="translate(176.513672 0)"/>
     <use xlink:href="#DejaVuSans-74" transform="translate(228.613281 0)"/>
     <use xlink:href="#DejaVuSans-20" transform="translate(267.822266 0)"/>
     <use xlink:href="#DejaVuSans-46" transform="translate(299.609375 0)"/>
     <use xlink:href="#DejaVuSans-65" transform="translate(351.628906 0)"/>
     <use xlink:href="#DejaVuSans-61" transform="translate(413.152344 0)"/>
     <use xlink:href="#DejaVuSans-74" transform="translate(474.431641 0)"/>
     <use xlink:href="#DejaVuSans-75" transform="translate(513.640625 0)"/>
     <use xlink:href="#DejaVuSans-72" transform="translate(577.019531 0)"/>
     <use xlink:href="#DejaVuSans-65" transform="translate(615.882812 0)"/>
     <use xlink:href="#DejaVuSans-73" transform="translate(677.40625 0)"/>
    </g>
   </g>
   <g id="text_14">
    <!-- LOO stats -->
    <g style="fill: #333333; opacity: 0.7" transform="translate(238.164375 281.651187) scale(0.06 -0.06)">
     <defs>
      <path id="DejaVuSans-4c" d="M 628 4666 
L 1259 4666 
L 1259 531 
L 3531 531 
L 3531 0 
L 628 0 
L 628 4666 
z
" transform="scale(0.015625)"/>
      <path id="DejaVuSans-4f" d="M 2522 4238 
Q 1834 4238 1429 3725 
Q 1025 3213 1025 2328 
Q 1025 1447 1429 934 
Q 1834 422 2522 422 
Q 3209 422 3611 934 
Q 4013 1447 4013 2328 
Q 4013 3213 3611 3725 
Q 3209 4238 2522 4238 
z
M 2522 4750 
Q 3503 4750 4090 4092 
Q 4678 3434 4678 2328 
Q 4678 1225 4090 567 
Q 3503 -91 2522 -91 
Q 1538 -91 948 565 
Q 359 1222 359 2328 
Q 359 3434 948 4092 
Q 1538 4750 2522 4750 
z
" transform="scale(0.015625)"/>
     </defs>
     <use xlink:href="#DejaVuSans-4c"/>
     <use xlink:href="#DejaVuSans-4f" transform="translate(52.087891 0)"/>
     <use xlink:href="#DejaVuSans-4f" transform="translate(130.798828 0)"/>
     <use xlink:href="#DejaVuSans-20" transform="translate(209.509766 0)"/>
     <use xlink:href="#DejaVuSans-73" transform="translate(241.296875 0)"/>
     <use xlink:href="#DejaVuSans-74" transform="translate(293.396484 0)"/>
     <use xlink:href="#DejaVuSans-61" transform="translate(332.605469 0)"/>
     <use xlink:href="#DejaVuSans-74" transform="translate(393.884766 0)"/>
     <use xlink:href="#DejaVuSans-73" transform="translate(433.09375 0)"/>
    </g>
   </g>
   <g id="text_15">
    <!-- Categorical Features -->
    <g style="fill: #333333" transform="translate(378.875 264.791625) scale(0.08 -0.08)">
     <use xlink:href="#DejaVuSans-43"/>
     <use xlink:href="#DejaVuSans-61" transform="translate(69.824219 0)"/>
     <use xlink:href="#DejaVuSans-74" transform="translate(131.103516 0)"/>
     <use xlink:href="#DejaVuSans-65" transform="translate(170.3125 0)"/>
     <use xlink:href="#DejaVuSans-67" transform="translate(231.835938 0)"/>
     <use xlink:href="#DejaVuSans-6f" transform="translate(295.3125 0)"/>
     <use xlink:href="#DejaVuSans-72" transform="translate(356.494141 0)"/>
     <use xlink:href="#DejaVuSans-69" transform="translate(397.607422 0)"/>
     <use xlink:href="#DejaVuSans-63" transform="translate(425.390625 0)"/>
     <use xlink:href="#DejaVuSans-61" transform="translate(480.371094 0)"/>
     <use xlink:href="#DejaVuSans-6c" transform="translate(541.650391 0)"/>
     <use xlink:href="#DejaVuSans-20" transform="translate(569.433594 0)"/>
     <use xlink:href="#DejaVuSans-46" transform="translate(601.220703 0)"/>
     <use xlink:href="#DejaVuSans-65" transform="translate(653.240234 0)"/>
     <use xlink:href="#DejaVuSans-61" transform="translate(714.763672 0)"/>
     <use xlink:href="#DejaVuSans-74" transform="translate(776.042969 0)"/>
     <use xlink:href="#DejaVuSans-75" transform="translate(815.251953 0)"/>
     <use xlink:href="#DejaVuSans-72" transform="translate(878.630859 0)"/>
     <use xlink:href="#DejaVuSans-65" transform="translate(917.494141 0)"/>
     <use xlink:href="#DejaVuSans-73" transform="translate(979.017578 0)"/>
    </g>
   </g>
   <g id="text_16">
    <!-- genre, type -->
    <g style="fill: #333333; opacity: 0.7" transform="translate(402.8475 281.651187) scale(0.06 -0.06)">
     <defs>
      <path id="DejaVuSans-2c" d="M 750 794 
L 1409 794 
L 1409 256 
L 897 -744 
L 494 -744 
L 750 256 
L 750 794 
z
" transform="scale(0.015625)"/>
      <path id="DejaVuSans-79" d="M 2059 -325 
Q 1816 -950 1584 -1140 
Q 1353 -1331 966 -1331 
L 506 -1331 
L 506 -850 
L 844 -850 
Q 1081 -850 1212 -737 
Q 1344 -625 1503 -206 
L 1606 56 
L 191 3500 
L 800 3500 
L 1894 763 
L 2988 3500 
L 3597 3500 
L 2059 -325 
z
" transform="scale(0.015625)"/>
     </defs>
     <use xlink:href="#DejaVuSans-67"/>
     <use xlink:href="#DejaVuSans-65" transform="translate(63.476562 0)"/>
     <use xlink:href="#DejaVuSans-6e" transform="translate(125 0)"/>
     <use xlink:href="#DejaVuSans-72" transform="translate(188.378906 0)"/>
     <use xlink:href="#DejaVuSans-65" transform="translate(227.242188 0)"/>
     <use xlink:href="#DejaVuSans-2c" transform="translate(288.765625 0)"/>
     <use xlink:href="#DejaVuSans-20" transform="translate(320.552734 0)"/>
     <use xlink:href="#DejaVuSans-74" transform="translate(352.339844 0)"/>
     <use xlink:href="#DejaVuSans-79" transform="translate(391.548828 0)"/>
     <use xlink:href="#DejaVuSans-70" transform="translate(450.728516 0)"/>
     <use xlink:href="#DejaVuSans-65" transform="translate(514.205078 0)"/>
    </g>
   </g>
   <g id="text_17">
    <!-- Hierarchical Model -->
    <g style="fill: #333333" transform="translate(226.76 331.751625) scale(0.08 -0.08)">
     <defs>
      <path id="DejaVuSans-48" d="M 628 4666 
L 1259 4666 
L 1259 2753 
L 3553 2753 
L 3553 4666 
L 4184 4666 
L 4184 0 
L 3553 0 
L 3553 2222 
L 1259 2222 
L 1259 0 
L 628 0 
L 628 4666 
z
" transform="scale(0.015625)"/>
      <path id="DejaVuSans-4d" d="M 628 4666 
L 1569 4666 
L 2759 1491 
L 3956 4666 
L 4897 4666 
L 4897 0 
L 4281 0 
L 4281 4097 
L 3078 897 
L 2444 897 
L 1241 4097 
L 1241 0 
L 628 0 
L 628 4666 
z
" transform="scale(0.015625)"/>
     </defs>
     <use xlink:href="#DejaVuSans-48"/>
     <use xlink:href="#DejaVuSans-69" transform="translate(75.195312 0)"/>
     <use xlink:href="#DejaVuSans-65" transform="translate(102.978516 0)"/>
     <use xlink:href="#DejaVuSans-72" transform="translate(164.501953 0)"/>
     <use xlink:href="#DejaVuSans-61" transform="translate(205.615234 0)"/>
     <use xlink:href="#DejaVuSans-72" transform="translate(266.894531 0)"/>
     <use xlink:href="#DejaVuSans-63" transform="translate(305.757812 0)"/>
     <use xlink:href="#DejaVuSans-68" transform="translate(360.738281 0)"/>
     <use xlink:href="#DejaVuSans-69" transform="translate(424.117188 0)"/>
     <use xlink:href="#DejaVuSans-63" transform="translate(451.900391 0)"/>
     <use xlink:href="#DejaVuSans-61" transform="translate(506.880859 0)"/>
     <use xlink:href="#DejaVuSans-6c" transform="translate(568.160156 0)"/>
     <use xlink:href="#DejaVuSans-20" transform="translate(595.943359 0)"/>
     <use xlink:href="#DejaVuSans-4d" transform="translate(627.730469 0)"/>
     <use xlink:href="#DejaVuSans-6f" transform="translate(714.009766 0)"/>
     <use xlink:href="#DejaVuSans-64" transform="translate(775.191406 0)"/>
     <use xlink:href="#DejaVuSans-65" transform="translate(838.667969 0)"/>
     <use xlink:href="#DejaVuSans-6c" transform="translate(900.191406 0)"/>
    </g>
   </g>
   <g id="text_18">
    <!-- artist effects, priors -->
    <g style="fill: #333333; opacity: 0.7" transform="translate(234.404063 348.611187) scale(0.06 -0.06)">
     <use xlink:href="#DejaVuSans-61"/>
     <use xlink:href="#DejaVuSans-72" transform="translate(61.279297 0)"/>
     <use xlink:href="#DejaVuSans-74" transform="translate(102.392578 0)"/>
     <use xlink:href="#DejaVuSans-69" transform="translate(141.601562 0)"/>
     <use xlink:href="#DejaVuSans-73" transform="translate(169.384766 0)"/>
     <use xlink:href="#DejaVuSans-74" transform="translate(221.484375 0)"/>
     <use xlink:href="#DejaVuSans-20" transform="translate(260.693359 0)"/>
     <use xlink:href="#DejaVuSans-65" transform="translate(292.480469 0)"/>
     <use xlink:href="#DejaVuSans-66" transform="translate(354.003906 0)"/>
     <use xlink:href="#DejaVuSans-66" transform="translate(389.208984 0)"/>
     <use xlink:href="#DejaVuSans-65" transform="translate(424.414062 0)"/>
     <use xlink:href="#DejaVuSans-63" transform="translate(485.9375 0)"/>
     <use xlink:href="#DejaVuSans-74" transform="translate(540.917969 0)"/>
     <use xlink:href="#DejaVuSans-73" transform="translate(580.126953 0)"/>
     <use xlink:href="#DejaVuSans-2c" transform="translate(632.226562 0)"/>
     <use xlink:href="#DejaVuSans-20" transform="translate(664.013672 0)"/>
     <use xlink:href="#DejaVuSans-70" transform="translate(695.800781 0)"/>
     <use xlink:href="#DejaVuSans-72" transform="translate(759.277344 0)"/>
     <use xlink:href="#DejaVuSans-69" transform="translate(800.390625 0)"/>
     <use xlink:href="#DejaVuSans-6f" transform="translate(828.173828 0)"/>
     <use xlink:href="#DejaVuSans-72" transform="translate(889.355469 0)"/>
     <use xlink:href="#DejaVuSans-73" transform="translate(930.46875 0)"/>
    </g>
   </g>
   <g id="text_19">
    <!-- MCMC Sampling -->
    <g style="fill: #333333" transform="translate(108.636875 398.711625) scale(0.08 -0.08)">
     <use xlink:href="#DejaVuSans-4d"/>
     <use xlink:href="#DejaVuSans-43" transform="translate(86.279297 0)"/>
     <use xlink:href="#DejaVuSans-4d" transform="translate(156.103516 0)"/>
     <use xlink:href="#DejaVuSans-43" transform="translate(242.382812 0)"/>
     <use xlink:href="#DejaVuSans-20" transform="translate(312.207031 0)"/>
     <use xlink:href="#DejaVuSans-53" transform="translate(343.994141 0)"/>
     <use xlink:href="#DejaVuSans-61" transform="translate(407.470703 0)"/>
     <use xlink:href="#DejaVuSans-6d" transform="translate(468.75 0)"/>
     <use xlink:href="#DejaVuSans-70" transform="translate(566.162109 0)"/>
     <use xlink:href="#DejaVuSans-6c" transform="translate(629.638672 0)"/>
     <use xlink:href="#DejaVuSans-69" transform="translate(657.421875 0)"/>
     <use xlink:href="#DejaVuSans-6e" transform="translate(685.205078 0)"/>
     <use xlink:href="#DejaVuSans-67" transform="translate(748.583984 0)"/>
    </g>
   </g>
   <g id="text_20">
    <!-- 4 chains -->
    <g style="fill: #333333; opacity: 0.7" transform="translate(128.571094 415.571187) scale(0.06 -0.06)">
     <defs>
      <path id="DejaVuSans-34" d="M 2419 4116 
L 825 1625 
L 2419 1625 
L 2419 4116 
z
M 2253 4666 
L 3047 4666 
L 3047 1625 
L 3713 1625 
L 3713 1100 
L 3047 1100 
L 3047 0 
L 2419 0 
L 2419 1100 
L 313 1100 
L 313 1709 
L 2253 4666 
z
" transform="scale(0.015625)"/>
     </defs>
     <use xlink:href="#DejaVuSans-34"/>
     <use xlink:href="#DejaVuSans-20" transform="translate(63.623047 0)"/>
     <use xlink:href="#DejaVuSans-63" transform="translate(95.410156 0)"/>
     <use xlink:href="#DejaVuSans-68" transform="translate(150.390625 0)"/>
     <use xlink:href="#DejaVuSans-61" transform="translate(213.769531 0)"/>
     <use xlink:href="#DejaVuSans-69" transform="translate(275.048828 0)"/>
     <use xlink:href="#DejaVuSans-6e" transform="translate(302.832031 0)"/>
     <use xlink:href="#DejaVuSans-73" transform="translate(366.210938 0)"/>
    </g>
   </g>
   <g id="text_21">
    <!-- GPU Acceleration -->
    <g style="fill: #333333" transform="translate(329.75375 398.711625) scale(0.08 -0.08)">
     <defs>
      <path id="DejaVuSans-47" d="M 3809 666 
L 3809 1919 
L 2778 1919 
L 2778 2438 
L 4434 2438 
L 4434 434 
Q 4069 175 3628 42 
Q 3188 -91 2688 -91 
Q 1594 -91 976 548 
Q 359 1188 359 2328 
Q 359 3472 976 4111 
Q 1594 4750 2688 4750 
Q 3144 4750 3555 4637 
Q 3966 4525 4313 4306 
L 4313 3634 
Q 3963 3931 3569 4081 
Q 3175 4231 2741 4231 
Q 1884 4231 1454 3753 
Q 1025 3275 1025 2328 
Q 1025 1384 1454 906 
Q 1884 428 2741 428 
Q 3075 428 3337 486 
Q 3600 544 3809 666 
z
" transform="scale(0.015625)"/>
      <path id="DejaVuSans-55" d="M 556 4666 
L 1191 4666 
L 1191 1831 
Q 1191 1081 1462 751 
Q 1734 422 2344 422 
Q 2950 422 3222 751 
Q 3494 1081 3494 1831 
L 3494 4666 
L 4128 4666 
L 4128 1753 
Q 4128 841 3676 375 
Q 3225 -91 2344 -91 
Q 1459 -91 1007 375 
Q 556 841 556 1753 
L 556 4666 
z
" transform="scale(0.015625)"/>
     </defs>
     <use xlink:href="#DejaVuSans-47"/>
     <use xlink:href="#DejaVuSans-50" transform="translate(77.490234 0)"/>
     <use xlink:href="#DejaVuSans-55" transform="translate(137.792969 0)"/>
     <use xlink:href="#DejaVuSans-20" transform="translate(210.986328 0)"/>
     <use xlink:href="#DejaVuSans-41" transform="translate(242.773438 0)"/>
     <use xlink:href="#DejaVuSans-63" transform="translate(309.431641 0)"/>
     <use xlink:href="#DejaVuSans-63" transform="translate(364.412109 0)"/>
     <use xlink:href="#DejaVuSans-65" transform="translate(419.392578 0)"/>
     <use xlink:href="#DejaVuSans-6c" transform="translate(480.916016 0)"/>
     <use xlink:href="#DejaVuSans-65" transform="translate(508.699219 0)"/>
     <use xlink:href="#DejaVuSans-72" transform="translate(570.222656 0)"/>
     <use xlink:href="#DejaVuSans-61" transform="translate(611.335938 0)"/>
     <use xlink:href="#DejaVuSans-74" transform="translate(672.615234 0)"/>
     <use xlink:href="#DejaVuSans-69" transform="translate(711.824219 0)"/>
     <use xlink:href="#DejaVuSans-6f" transform="translate(739.607422 0)"/>
     <use xlink:href="#DejaVuSans-6e" transform="translate(800.789062 0)"/>
    </g>
   </g>
   <g id="text_22">
    <!-- JAX / NumPyro -->
    <g style="fill: #333333; opacity: 0.7" transform="translate(342.809062 415.571187) scale(0.06 -0.06)">
     <defs>
      <path id="DejaVuSans-4a" d="M 628 4666 
L 1259 4666 
L 1259 325 
Q 1259 -519 939 -900 
Q 619 -1281 -91 -1281 
L -331 -1281 
L -331 -750 
L -134 -750 
Q 284 -750 456 -515 
Q 628 -281 628 325 
L 628 4666 
z
" transform="scale(0.015625)"/>
      <path id="DejaVuSans-58" d="M 403 4666 
L 1081 4666 
L 2241 2931 
L 3406 4666 
L 4084 4666 
L 2584 2425 
L 4184 0 
L 3506 0 
L 2194 1984 
L 872 0 
L 191 0 
L 1856 2491 
L 403 4666 
z
" transform="scale(0.015625)"/>
      <path id="DejaVuSans-2f" d="M 1625 4666 
L 2156 4666 
L 531 -594 
L 0 -594 
L 1625 4666 
z
" transform="scale(0.015625)"/>
      <path id="DejaVuSans-4e" d="M 628 4666 
L 1478 4666 
L 3547 763 
L 3547 4666 
L 4159 4666 
L 4159 0 
L 3309 0 
L 1241 3903 
L 1241 0 
L 628 0 
L 628 4666 
z
" transform="scale(0.015625)"/>
     </defs>
     <use xlink:href="#DejaVuSans-4a"/>
     <use xlink:href="#DejaVuSans-41" transform="translate(27.742188 0)"/>
     <use xlink:href="#DejaVuSans-58" transform="translate(96.150391 0)"/>
     <use xlink:href="#DejaVuSans-20" transform="translate(164.65625 0)"/>
     <use xlink:href="#DejaVuSans-2f" transform="translate(196.443359 0)"/>
     <use xlink:href="#DejaVuSans-20" transform="translate(230.134766 0)"/>
     <use xlink:href="#DejaVuSans-4e" transform="translate(261.921875 0)"/>
     <use xlink:href="#DejaVuSans-75" transform="translate(336.726562 0)"/>
     <use xlink:href="#DejaVuSans-6d" transform="translate(400.105469 0)"/>
     <use xlink:href="#DejaVuSans-50" transform="translate(497.517578 0)"/>
     <use xlink:href="#DejaVuSans-79" transform="translate(557.820312 0)"/>
     <use xlink:href="#DejaVuSans-72" transform="translate(617 0)"/>
     <use xlink:href="#DejaVuSans-6f" transform="translate(655.863281 0)"/>
    </g>
   </g>
   <g id="text_23">
    <!-- Convergence -->
    <g style="fill: #333333" transform="translate(58.945 465.671625) scale(0.08 -0.08)">
     <use xlink:href="#DejaVuSans-43"/>
     <use xlink:href="#DejaVuSans-6f" transform="translate(69.824219 0)"/>
     <use xlink:href="#DejaVuSans-6e" transform="translate(131.005859 0)"/>
     <use xlink:href="#DejaVuSans-76" transform="translate(194.384766 0)"/>
     <use xlink:href="#DejaVuSans-65" transform="translate(253.564453 0)"/>
     <use xlink:href="#DejaVuSans-72" transform="translate(315.087891 0)"/>
     <use xlink:href="#DejaVuSans-67" transform="translate(354.451172 0)"/>
     <use xlink:href="#DejaVuSans-65" transform="translate(417.927734 0)"/>
     <use xlink:href="#DejaVuSans-6e" transform="translate(479.451172 0)"/>
     <use xlink:href="#DejaVuSans-63" transform="translate(542.830078 0)"/>
     <use xlink:href="#DejaVuSans-65" transform="translate(597.810547 0)"/>
    </g>
   </g>
   <g id="text_24">
    <!-- R-hat, ESS -->
    <g style="fill: #333333; opacity: 0.7" transform="translate(69.745781 482.531187) scale(0.06 -0.06)">
     <defs>
      <path id="DejaVuSans-45" d="M 628 4666 
L 3578 4666 
L 3578 4134 
L 1259 4134 
L 1259 2753 
L 3481 2753 
L 3481 2222 
L 1259 2222 
L 1259 531 
L 3634 531 
L 3634 0 
L 628 0 
L 628 4666 
z
" transform="scale(0.015625)"/>
     </defs>
     <use xlink:href="#DejaVuSans-52"/>
     <use xlink:href="#DejaVuSans-2d" transform="translate(65.482422 0)"/>
     <use xlink:href="#DejaVuSans-68" transform="translate(101.566406 0)"/>
     <use xlink:href="#DejaVuSans-61" transform="translate(164.945312 0)"/>
     <use xlink:href="#DejaVuSans-74" transform="translate(226.224609 0)"/>
     <use xlink:href="#DejaVuSans-2c" transform="translate(265.433594 0)"/>
     <use xlink:href="#DejaVuSans-20" transform="translate(297.220703 0)"/>
     <use xlink:href="#DejaVuSans-45" transform="translate(329.007812 0)"/>
     <use xlink:href="#DejaVuSans-53" transform="translate(392.191406 0)"/>
     <use xlink:href="#DejaVuSans-53" transform="translate(455.667969 0)"/>
    </g>
   </g>
   <g id="text_25">
    <!-- LOO-CV -->
    <g style="fill: #333333" transform="translate(237.25625 465.671625) scale(0.08 -0.08)">
     <use xlink:href="#DejaVuSans-4c"/>
     <use xlink:href="#DejaVuSans-4f" transform="translate(52.087891 0)"/>
     <use xlink:href="#DejaVuSans-4f" transform="translate(130.798828 0)"/>
     <use xlink:href="#DejaVuSans-2d" transform="translate(212.259766 0)"/>
     <use xlink:href="#DejaVuSans-43" transform="translate(248.34375 0)"/>
     <use xlink:href="#DejaVuSans-56" transform="translate(318.167969 0)"/>
    </g>
   </g>
   <g id="text_26">
    <!-- PSIS -->
    <g style="fill: #333333; opacity: 0.7" transform="translate(246.217031 482.531187) scale(0.06 -0.06)">
     <defs>
      <path id="DejaVuSans-49" d="M 628 4666 
L 1259 4666 
L 1259 0 
L 628 0 
L 628 4666 
z
" transform="scale(0.015625)"/>
     </defs>
     <use xlink:href="#DejaVuSans-50"/>
     <use xlink:href="#DejaVuSans-53" transform="translate(60.302734 0)"/>
     <use xlink:href="#DejaVuSans-49" transform="translate(123.779297 0)"/>
     <use xlink:href="#DejaVuSans-53" transform="translate(153.271484 0)"/>
    </g>
   </g>
   <g id="text_27">
    <!-- Calibration -->
    <g style="fill: #333333" transform="translate(398.35625 465.671625) scale(0.08 -0.08)">
     <use xlink:href="#DejaVuSans-43"/>
     <use xlink:href="#DejaVuSans-61" transform="translate(69.824219 0)"/>
     <use xlink:href="#DejaVuSans-6c" transform="translate(131.103516 0)"/>
     <use xlink:href="#DejaVuSans-69" transform="translate(158.886719 0)"/>
     <use xlink:href="#DejaVuSans-62" transform="translate(186.669922 0)"/>
     <use xlink:href="#DejaVuSans-72" transform="translate(250.146484 0)"/>
     <use xlink:href="#DejaVuSans-61" transform="translate(291.259766 0)"/>
     <use xlink:href="#DejaVuSans-74" transform="translate(352.539062 0)"/>
     <use xlink:href="#DejaVuSans-69" transform="translate(391.748047 0)"/>
     <use xlink:href="#DejaVuSans-6f" transform="translate(419.53125 0)"/>
     <use xlink:href="#DejaVuSans-6e" transform="translate(480.712891 0)"/>
    </g>
   </g>
   <g id="text_28">
    <!-- coverage -->
    <g style="fill: #333333; opacity: 0.7" transform="translate(406.191094 482.531187) scale(0.06 -0.06)">
     <use xlink:href="#DejaVuSans-63"/>
     <use xlink:href="#DejaVuSans-6f" transform="translate(54.980469 0)"/>
     <use xlink:href="#DejaVuSans-76" transform="translate(116.162109 0)"/>
     <use xlink:href="#DejaVuSans-65" transform="translate(175.341797 0)"/>
     <use xlink:href="#DejaVuSans-72" transform="translate(236.865234 0)"/>
     <use xlink:href="#DejaVuSans-61" transform="translate(277.978516 0)"/>
     <use xlink:href="#DejaVuSans-67" transform="translate(339.257812 0)"/>
     <use xlink:href="#DejaVuSans-65" transform="translate(402.734375 0)"/>
    </g>
   </g>
   <g id="text_29">
    <!-- Predictions + Uncertainty -->
    <g style="fill: #333333" transform="translate(207.08375 532.631625) scale(0.08 -0.08)">
     <defs>
      <path id="DejaVuSans-2b" d="M 2944 4013 
L 2944 2272 
L 4684 2272 
L 4684 1741 
L 2944 1741 
L 2944 0 
L 2419 0 
L 2419 1741 
L 678 1741 
L 678 2272 
L 2419 2272 
L 2419 4013 
L 2944 4013 
z
" transform="scale(0.015625)"/>
     </defs>
     <use xlink:href="#DejaVuSans-50"/>
     <use xlink:href="#DejaVuSans-72" transform="translate(58.552734 0)"/>
     <use xlink:href="#DejaVuSans-65" transform="translate(97.416016 0)"/>
     <use xlink:href="#DejaVuSans-64" transform="translate(158.939453 0)"/>
     <use xlink:href="#DejaVuSans-69" transform="translate(222.416016 0)"/>
     <use xlink:href="#DejaVuSans-63" transform="translate(250.199219 0)"/>
     <use xlink:href="#DejaVuSans-74" transform="translate(305.179688 0)"/>
     <use xlink:href="#DejaVuSans-69" transform="translate(344.388672 0)"/>
     <use xlink:href="#DejaVuSans-6f" transform="translate(372.171875 0)"/>
     <use xlink:href="#DejaVuSans-6e" transform="translate(433.353516 0)"/>
     <use xlink:href="#DejaVuSans-73" transform="translate(496.732422 0)"/>
     <use xlink:href="#DejaVuSans-20" transform="translate(548.832031 0)"/>
     <use xlink:href="#DejaVuSans-2b" transform="translate(580.619141 0)"/>
     <use xlink:href="#DejaVuSans-20" transform="translate(664.408203 0)"/>
     <use xlink:href="#DejaVuSans-55" transform="translate(696.195312 0)"/>
     <use xlink:href="#DejaVuSans-6e" transform="translate(769.388672 0)"/>
     <use xlink:href="#DejaVuSans-63" transform="translate(832.767578 0)"/>
     <use xlink:href="#DejaVuSans-65" transform="translate(887.748047 0)"/>
     <use xlink:href="#DejaVuSans-72" transform="translate(949.271484 0)"/>
     <use xlink:href="#DejaVuSans-74" transform="translate(990.384766 0)"/>
     <use xlink:href="#DejaVuSans-61" transform="translate(1029.59375 0)"/>
     <use xlink:href="#DejaVuSans-69" transform="translate(1090.873047 0)"/>
     <use xlink:href="#DejaVuSans-6e" transform="translate(1118.65625 0)"/>
     <use xlink:href="#DejaVuSans-74" transform="translate(1182.035156 0)"/>
     <use xlink:href="#DejaVuSans-79" transform="translate(1221.244141 0)"/>
    </g>
   </g>
   <g id="text_30">
    <!-- credible intervals -->
    <g style="fill: #333333; opacity: 0.7" transform="translate(232.363125 549.491187) scale(0.06 -0.06)">
     <use xlink:href="#DejaVuSans-63"/>
     <use xlink:href="#DejaVuSans-72" transform="translate(54.980469 0)"/>
     <use xlink:href="#DejaVuSans-65" transform="translate(93.84375 0)"/>
     <use xlink:href="#DejaVuSans-64" transform="translate(155.367188 0)"/>
     <use xlink:href="#DejaVuSans-69" transform="translate(218.84375 0)"/>
     <use xlink:href="#DejaVuSans-62" transform="translate(246.626953 0)"/>
     <use xlink:href="#DejaVuSans-6c" transform="translate(310.103516 0)"/>
     <use xlink:href="#DejaVuSans-65" transform="translate(337.886719 0)"/>
     <use xlink:href="#DejaVuSans-20" transform="translate(399.410156 0)"/>
     <use xlink:href="#DejaVuSans-69" transform="translate(431.197266 0)"/>
     <use xlink:href="#DejaVuSans-6e" transform="translate(458.980469 0)"/>
     <use xlink:href="#DejaVuSans-74" transform="translate(522.359375 0)"/>
     <use xlink:href="#DejaVuSans-65" transform="translate(561.568359 0)"/>
     <use xlink:href="#DejaVuSans-72" transform="translate(623.091797 0)"/>
     <use xlink:href="#DejaVuSans-76" transform="translate(664.205078 0)"/>
     <use xlink:href="#DejaVuSans-61" transform="translate(723.384766 0)"/>
     <use xlink:href="#DejaVuSans-6c" transform="translate(784.664062 0)"/>
     <use xlink:href="#DejaVuSans-73" transform="translate(812.447266 0)"/>
    </g>
   </g>
   <g id="text_31">
    <!-- refine -->
    <g style="fill: #333333; opacity: 0.8" transform="translate(110.151562 391.350312) scale(0.06 -0.06)">
     <use xlink:href="#DejaVuSans-72"/>
     <use xlink:href="#DejaVuSans-65" transform="translate(38.863281 0)"/>
     <use xlink:href="#DejaVuSans-66" transform="translate(100.386719 0)"/>
     <use xlink:href="#DejaVuSans-69" transform="translate(135.591797 0)"/>
     <use xlink:href="#DejaVuSans-6e" transform="translate(163.375 0)"/>
     <use xlink:href="#DejaVuSans-65" transform="translate(226.753906 0)"/>
    </g>
   </g>
   <g id="text_32">
    <!-- AOTY Prediction Pipeline -->
    <g style="fill: #333333" transform="translate(201.914062 16.318125) scale(0.12 -0.12)">
     <defs>
      <path id="DejaVuSans-Bold-41" d="M 3419 850 
L 1538 850 
L 1241 0 
L 31 0 
L 1759 4666 
L 3194 4666 
L 4922 0 
L 3713 0 
L 3419 850 
z
M 1838 1716 
L 3116 1716 
L 2478 3572 
L 1838 1716 
z
" transform="scale(0.015625)"/>
      <path id="DejaVuSans-Bold-4f" d="M 2719 3878 
Q 2169 3878 1866 3472 
Q 1563 3066 1563 2328 
Q 1563 1594 1866 1187 
Q 2169 781 2719 781 
Q 3272 781 3575 1187 
Q 3878 1594 3878 2328 
Q 3878 3066 3575 3472 
Q 3272 3878 2719 3878 
z
M 2719 4750 
Q 3844 4750 4481 4106 
Q 5119 3463 5119 2328 
Q 5119 1197 4481 553 
Q 3844 -91 2719 -91 
Q 1597 -91 958 553 
Q 319 1197 319 2328 
Q 319 3463 958 4106 
Q 1597 4750 2719 4750 
z
" transform="scale(0.015625)"/>
      <path id="DejaVuSans-Bold-54" d="M 31 4666 
L 4331 4666 
L 4331 3756 
L 2784 3756 
L 2784 0 
L 1581 0 
L 1581 3756 
L 31 3756 
L 31 4666 
z
" transform="scale(0.015625)"/>
      <path id="DejaVuSans-Bold-59" d="M -63 4666 
L 1253 4666 
L 2316 3003 
L 3378 4666 
L 4697 4666 
L 2919 1966 
L 2919 0 
L 1716 0 
L 1716 1966 
L -63 4666 
z
" transform="scale(0.015625)"/>
      <path id="DejaVuSans-Bold-20" transform="scale(0.015625)"/>
      <path id="DejaVuSans-Bold-50" d="M 588 4666 
L 2584 4666 
Q 3475 4666 3951 4270 
Q 4428 3875 4428 3144 
Q 4428 2409 3951 2014 
Q 3475 1619 2584 1619 
L 1791 1619 
L 1791 0 
L 588 0 
L 588 4666 
z
M 1791 3794 
L 1791 2491 
L 2456 2491 
Q 2806 2491 2997 2661 
Q 3188 2831 3188 3144 
Q 3188 3456 2997 3625 
Q 2806 3794 2456 3794 
L 1791 3794 
z
" transform="scale(0.015625)"/>
      <path id="DejaVuSans-Bold-72" d="M 3138 2547 
Q 2991 2616 2845 2648 
Q 2700 2681 2553 2681 
Q 2122 2681 1889 2404 
Q 1656 2128 1656 1613 
L 1656 0 
L 538 0 
L 538 3500 
L 1656 3500 
L 1656 2925 
Q 1872 3269 2151 3426 
Q 2431 3584 2822 3584 
Q 2878 3584 2943 3579 
Q 3009 3575 3134 3559 
L 3138 2547 
z
" transform="scale(0.015625)"/>
      <path id="DejaVuSans-Bold-65" d="M 4031 1759 
L 4031 1441 
L 1416 1441 
Q 1456 1047 1700 850 
Q 1944 653 2381 653 
Q 2734 653 3104 758 
Q 3475 863 3866 1075 
L 3866 213 
Q 3469 63 3072 -14 
Q 2675 -91 2278 -91 
Q 1328 -91 801 392 
Q 275 875 275 1747 
Q 275 2603 792 3093 
Q 1309 3584 2216 3584 
Q 3041 3584 3536 3087 
Q 4031 2591 4031 1759 
z
M 2881 2131 
Q 2881 2450 2695 2645 
Q 2509 2841 2209 2841 
Q 1884 2841 1681 2658 
Q 1478 2475 1428 2131 
L 2881 2131 
z
" transform="scale(0.015625)"/>
      <path id="DejaVuSans-Bold-64" d="M 2919 2988 
L 2919 4863 
L 4044 4863 
L 4044 0 
L 2919 0 
L 2919 506 
Q 2688 197 2409 53 
Q 2131 -91 1766 -91 
Q 1119 -91 703 423 
Q 288 938 288 1747 
Q 288 2556 703 3070 
Q 1119 3584 1766 3584 
Q 2128 3584 2408 3439 
Q 2688 3294 2919 2988 
z
M 2181 722 
Q 2541 722 2730 984 
Q 2919 1247 2919 1747 
Q 2919 2247 2730 2509 
Q 2541 2772 2181 2772 
Q 1825 2772 1636 2509 
Q 1447 2247 1447 1747 
Q 1447 1247 1636 984 
Q 1825 722 2181 722 
z
" transform="scale(0.015625)"/>
      <path id="DejaVuSans-Bold-69" d="M 538 3500 
L 1656 3500 
L 1656 0 
L 538 0 
L 538 3500 
z
M 538 4863 
L 1656 4863 
L 1656 3950 
L 538 3950 
L 538 4863 
z
" transform="scale(0.015625)"/>
      <path id="DejaVuSans-Bold-63" d="M 3366 3391 
L 3366 2478 
Q 3138 2634 2908 2709 
Q 2678 2784 2431 2784 
Q 1963 2784 1702 2511 
Q 1441 2238 1441 1747 
Q 1441 1256 1702 982 
Q 1963 709 2431 709 
Q 2694 709 2930 787 
Q 3166 866 3366 1019 
L 3366 103 
Q 3103 6 2833 -42 
Q 2563 -91 2291 -91 
Q 1344 -91 809 395 
Q 275 881 275 1747 
Q 275 2613 809 3098 
Q 1344 3584 2291 3584 
Q 2566 3584 2833 3536 
Q 3100 3488 3366 3391 
z
" transform="scale(0.015625)"/>
      <path id="DejaVuSans-Bold-74" d="M 1759 4494 
L 1759 3500 
L 2913 3500 
L 2913 2700 
L 1759 2700 
L 1759 1216 
Q 1759 972 1856 886 
Q 1953 800 2241 800 
L 2816 800 
L 2816 0 
L 1856 0 
Q 1194 0 917 276 
Q 641 553 641 1216 
L 641 2700 
L 84 2700 
L 84 3500 
L 641 3500 
L 641 4494 
L 1759 4494 
z
" transform="scale(0.015625)"/>
      <path id="DejaVuSans-Bold-6f" d="M 2203 2784 
Q 1831 2784 1636 2517 
Q 1441 2250 1441 1747 
Q 1441 1244 1636 976 
Q 1831 709 2203 709 
Q 2569 709 2762 976 
Q 2956 1244 2956 1747 
Q 2956 2250 2762 2517 
Q 2569 2784 2203 2784 
z
M 2203 3584 
Q 3106 3584 3614 3096 
Q 4122 2609 4122 1747 
Q 4122 884 3614 396 
Q 3106 -91 2203 -91 
Q 1297 -91 786 396 
Q 275 884 275 1747 
Q 275 2609 786 3096 
Q 1297 3584 2203 3584 
z
" transform="scale(0.015625)"/>
      <path id="DejaVuSans-Bold-6e" d="M 4056 2131 
L 4056 0 
L 2931 0 
L 2931 347 
L 2931 1631 
Q 2931 2084 2911 2256 
Q 2891 2428 2841 2509 
Q 2775 2619 2662 2680 
Q 2550 2741 2406 2741 
Q 2056 2741 1856 2470 
Q 1656 2200 1656 1722 
L 1656 0 
L 538 0 
L 538 3500 
L 1656 3500 
L 1656 2988 
Q 1909 3294 2193 3439 
Q 2478 3584 2822 3584 
Q 3428 3584 3742 3212 
Q 4056 2841 4056 2131 
z
" transform="scale(0.015625)"/>
      <path id="DejaVuSans-Bold-70" d="M 1656 506 
L 1656 -1331 
L 538 -1331 
L 538 3500 
L 1656 3500 
L 1656 2988 
Q 1888 3294 2169 3439 
Q 2450 3584 2816 3584 
Q 3463 3584 3878 3070 
Q 4294 2556 4294 1747 
Q 4294 938 3878 423 
Q 3463 -91 2816 -91 
Q 2450 -91 2169 54 
Q 1888 200 1656 506 
z
M 2400 2772 
Q 2041 2772 1848 2508 
Q 1656 2244 1656 1747 
Q 1656 1250 1848 986 
Q 2041 722 2400 722 
Q 2759 722 2948 984 
Q 3138 1247 3138 1747 
Q 3138 2247 2948 2509 
Q 2759 2772 2400 2772 
z
" transform="scale(0.015625)"/>
      <path id="DejaVuSans-Bold-6c" d="M 538 4863 
L 1656 4863 
L 1656 0 
L 538 0 
L 538 4863 
z
" transform="scale(0.015625)"/>
     </defs>
     <use xlink:href="#DejaVuSans-Bold-41"/>
     <use xlink:href="#DejaVuSans-Bold-4f" transform="translate(77.392578 0)"/>
     <use xlink:href="#DejaVuSans-Bold-54" transform="translate(162.402344 0)"/>
     <use xlink:href="#DejaVuSans-Bold-59" transform="translate(230.615234 0)"/>
     <use xlink:href="#DejaVuSans-Bold-20" transform="translate(303.027344 0)"/>
     <use xlink:href="#DejaVuSans-Bold-50" transform="translate(337.841797 0)"/>
     <use xlink:href="#DejaVuSans-Bold-72" transform="translate(411.132812 0)"/>
     <use xlink:href="#DejaVuSans-Bold-65" transform="translate(460.449219 0)"/>
     <use xlink:href="#DejaVuSans-Bold-64" transform="translate(528.271484 0)"/>
     <use xlink:href="#DejaVuSans-Bold-69" transform="translate(599.853516 0)"/>
     <use xlink:href="#DejaVuSans-Bold-63" transform="translate(634.130859 0)"/>
     <use xlink:href="#DejaVuSans-Bold-74" transform="translate(693.408203 0)"/>
     <use xlink:href="#DejaVuSans-Bold-69" transform="translate(741.210938 0)"/>
     <use xlink:href="#DejaVuSans-Bold-6f" transform="translate(775.488281 0)"/>
     <use xlink:href="#DejaVuSans-Bold-6e" transform="translate(844.189453 0)"/>
     <use xlink:href="#DejaVuSans-Bold-20" transform="translate(915.380859 0)"/>
     <use xlink:href="#DejaVuSans-Bold-50" transform="translate(950.195312 0)"/>
     <use xlink:href="#DejaVuSans-Bold-69" transform="translate(1023.486328 0)"/>
     <use xlink:href="#DejaVuSans-Bold-70" transform="translate(1057.763672 0)"/>
     <use xlink:href="#DejaVuSans-Bold-65" transform="translate(1129.345703 0)"/>
     <use xlink:href="#DejaVuSans-Bold-6c" transform="translate(1197.167969 0)"/>
     <use xlink:href="#DejaVuSans-Bold-69" transform="translate(1231.445312 0)"/>
     <use xlink:href="#DejaVuSans-Bold-6e" transform="translate(1265.722656 0)"/>
     <use xlink:href="#DejaVuSans-Bold-65" transform="translate(1336.914062 0)"/>
    </g>
   </g>
   <g id="legend_1">
    <g id="patch_36">
     <path d="M 499.436094 578.818125 
L 561.7 578.818125 
L 561.7 525.344687 
L 499.436094 525.344687 
z
" style="fill: #ffffff; opacity: 0.9; stroke: #555555; stroke-width: 0.5; stroke-linejoin: miter"/>
    </g>
    <g id="patch_37">
     <path d="M 502.236094 533.463594 
L 516.236094 533.463594 
L 516.236094 528.563594 
L 502.236094 528.563594 
z
" style="fill: #e8e8e8; stroke: #555555; stroke-width: 0.5; stroke-linejoin: miter"/>
    </g>
    <g id="text_33">
     <!-- Data Input -->
     <g transform="translate(521.836094 533.463594) scale(0.07 -0.07)">
      <use xlink:href="#DejaVuSans-44"/>
      <use xlink:href="#DejaVuSans-61" transform="translate(77.001953 0)"/>
      <use xlink:href="#DejaVuSans-74" transform="translate(138.28125 0)"/>
      <use xlink:href="#DejaVuSans-61" transform="translate(177.490234 0)"/>
      <use xlink:href="#DejaVuSans-20" transform="translate(238.769531 0)"/>
      <use xlink:href="#DejaVuSans-49" transform="translate(270.556641 0)"/>
      <use xlink:href="#DejaVuSans-6e" transform="translate(300.048828 0)"/>
      <use xlink:href="#DejaVuSans-70" transform="translate(363.427734 0)"/>
      <use xlink:href="#DejaVuSans-75" transform="translate(426.904297 0)"/>
      <use xlink:href="#DejaVuSans-74" transform="translate(490.283203 0)"/>
     </g>
    </g>
    <g id="patch_38">
     <path d="M 502.236094 543.738281 
L 516.236094 543.738281 
L 516.236094 538.838281 
L 502.236094 538.838281 
z
" style="fill: #b8d4e8; stroke: #555555; stroke-width: 0.5; stroke-linejoin: miter"/>
    </g>
    <g id="text_34">
     <!-- Features -->
     <g transform="translate(521.836094 543.738281) scale(0.07 -0.07)">
      <use xlink:href="#DejaVuSans-46"/>
      <use xlink:href="#DejaVuSans-65" transform="translate(52.019531 0)"/>
      <use xlink:href="#DejaVuSans-61" transform="translate(113.542969 0)"/>
      <use xlink:href="#DejaVuSans-74" transform="translate(174.822266 0)"/>
      <use xlink:href="#DejaVuSans-75" transform="translate(214.03125 0)"/>
      <use xlink:href="#DejaVuSans-72" transform="translate(277.410156 0)"/>
      <use xlink:href="#DejaVuSans-65" transform="translate(316.273438 0)"/>
      <use xlink:href="#DejaVuSans-73" transform="translate(377.796875 0)"/>
     </g>
    </g>
    <g id="patch_39">
     <path d="M 502.236094 554.012969 
L 516.236094 554.012969 
L 516.236094 549.112969 
L 502.236094 549.112969 
z
" style="fill: #e8d8b8; stroke: #555555; stroke-width: 0.5; stroke-linejoin: miter"/>
    </g>
    <g id="text_35">
     <!-- Model -->
     <g transform="translate(521.836094 554.012969) scale(0.07 -0.07)">
      <use xlink:href="#DejaVuSans-4d"/>
      <use xlink:href="#DejaVuSans-6f" transform="translate(86.279297 0)"/>
      <use xlink:href="#DejaVuSans-64" transform="translate(147.460938 0)"/>
      <use xlink:href="#DejaVuSans-65" transform="translate(210.9375 0)"/>
      <use xlink:href="#DejaVuSans-6c" transform="translate(272.460938 0)"/>
     </g>
    </g>
    <g id="patch_40">
     <path d="M 502.236094 564.287656 
L 516.236094 564.287656 
L 516.236094 559.387656 
L 502.236094 559.387656 
z
" style="fill: #d8e8d8; stroke: #555555; stroke-width: 0.5; stroke-linejoin: miter"/>
    </g>
    <g id="text_36">
     <!-- Validation -->
     <g transform="translate(521.836094 564.287656) scale(0.07 -0.07)">
      <use xlink:href="#DejaVuSans-56"/>
      <use xlink:href="#DejaVuSans-61" transform="translate(60.658203 0)"/>
      <use xlink:href="#DejaVuSans-6c" transform="translate(121.9375 0)"/>
      <use xlink:href="#DejaVuSans-69" transform="translate(149.720703 0)"/>
      <use xlink:href="#DejaVuSans-64" transform="translate(177.503906 0)"/>
      <use xlink:href="#DejaVuSans-61" transform="translate(240.980469 0)"/>
      <use xlink:href="#DejaVuSans-74" transform="translate(302.259766 0)"/>
      <use xlink:href="#DejaVuSans-69" transform="translate(341.46875 0)"/>
      <use xlink:href="#DejaVuSans-6f" transform="translate(369.251953 0)"/>
      <use xlink:href="#DejaVuSans-6e" transform="translate(430.433594 0)"/>
     </g>
    </g>
    <g id="patch_41">
     <path d="M 502.236094 574.562344 
L 516.236094 574.562344 
L 516.236094 569.662344 
L 502.236094 569.662344 
z
" style="fill: #e8d8d8; stroke: #555555; stroke-width: 0.5; stroke-linejoin: miter"/>
    </g>
    <g id="text_37">
     <!-- Output -->
     <g transform="translate(521.836094 574.562344) scale(0.07 -0.07)">
      <use xlink:href="#DejaVuSans-4f"/>
      <use xlink:href="#DejaVuSans-75" transform="translate(78.710938 0)"/>
      <use xlink:href="#DejaVuSans-74" transform="translate(142.089844 0)"/>
      <use xlink:href="#DejaVuSans-70" transform="translate(181.298828 0)"/>
      <use xlink:href="#DejaVuSans-75" transform="translate(244.775391 0)"/>
      <use xlink:href="#DejaVuSans-74" transform="translate(308.154297 0)"/>
     </g>
    </g>
   </g>
  </g>
 </g>
 <defs>
  <clipPath id="p6542d97830">
   <rect x="7.2" y="24.318125" width="558" height="558"/>
  </clipPath>
 </defs>
</svg>
